<?xml version="1.0" encoding="UTF-8"?>
<svg version="1.1" xmlns="http://www.w3.org/2000/svg" width="512" height="512">
<path d="M0 0 C0.83325806 -0.00067474 1.66651611 -0.00134949 2.52502441 -0.00204468 C35.93009626 0.0405984 70.17293935 4.69416642 101.6484375 16.29296875 C102.57744873 16.62893066 103.50645996 16.96489258 104.46362305 17.31103516 C106.21551084 17.95513695 107.95790449 18.62602008 109.68676758 19.32958984 C116.57838199 21.87420734 121.21432855 20.68165889 128 18.25 C129.65690652 17.71025381 131.31444658 17.17244803 132.97265625 16.63671875 C133.79531982 16.36126221 134.6179834 16.08580566 135.46557617 15.80200195 C167.36923564 5.18144558 200.4802865 0.02475327 234.0625 0 C234.8932605 -0.00067474 235.724021 -0.00134949 236.57995605 -0.00204468 C268.39333231 0.03866366 299.5638521 4.95681246 330 14.25 C330.6899707 14.45592773 331.37994141 14.66185547 332.09082031 14.87402344 C339.93095436 17.27439051 345.60836388 20.1152804 350 27.25 C352.02727491 31.33938272 352.37075596 35.02848123 352.625 39.5625 C352.73714844 41.44388672 352.73714844 41.44388672 352.8515625 43.36328125 C352.90054687 44.31589844 352.94953125 45.26851562 353 46.25 C353.86882812 46.52972656 354.73765625 46.80945313 355.6328125 47.09765625 C363.87541814 49.96505038 368.6232951 52.53473497 373.04941994 60.02620292 C374.19126368 62.69744428 374.25403062 64.67411889 374.26006222 67.57684708 C374.26712781 68.6632137 374.2741934 69.74958033 374.2814731 70.86886716 C374.27905802 72.06184376 374.27664293 73.25482035 374.27415466 74.48394775 C374.27939134 75.75170571 374.28462802 77.01946367 374.29002339 78.32563853 C374.30421609 81.84706689 374.30586644 85.36840705 374.30542648 88.88985991 C374.30707358 92.68686105 374.32013813 96.48382573 374.33161926 100.2808075 C374.35447707 108.58456143 374.36239076 116.88828983 374.36744571 125.19207096 C374.37070192 130.37691949 374.37722395 135.56176059 374.3844471 140.74660492 C374.40401429 155.10177497 374.42041772 169.4569381 374.42332363 183.81212234 C374.4235112 184.73089646 374.42369877 185.64967058 374.42389202 186.59628634 C374.42425828 188.45887264 374.42462197 190.32145893 374.42498314 192.18404523 C374.42516595 193.10863745 374.42534876 194.03322967 374.42553711 194.98583984 C374.42580793 196.3744209 374.42580793 196.3744209 374.42608423 197.7910541 C374.42962586 212.79103437 374.45664701 227.79087108 374.494035 242.79080155 C374.53211295 258.19078352 374.55148107 273.59069424 374.55178314 288.99072433 C374.55236784 297.63738418 374.56086769 306.28387279 374.58978081 314.93048859 C374.61428791 322.29334265 374.62158222 329.65596302 374.60653328 337.01884684 C374.59936144 340.77488098 374.60023291 344.53045361 374.62294388 348.28643608 C374.64734291 352.36066955 374.63290598 356.43385194 374.61473083 360.50811768 C374.6279308 361.69217139 374.64113077 362.87622509 374.65473074 364.09615922 C374.58379529 371.04980415 373.70383196 375.94593605 369 381.25 C363.06689755 386.09334894 357.45063631 385.86593212 350 385.25 C345.2713425 384.28820379 340.68588067 382.93653887 336.0625 381.5625 C286.40736237 367.43094244 233.85250905 365.74609837 183.17027283 375.17913818 C179.01383956 375.94008477 174.87433043 376.51717676 170.67506409 376.98242188 C147.4698705 379.68705737 135.27910809 389.40628374 119.91409302 406.68183899 C106.38154189 421.89347335 91.88390457 426.88930289 72.234375 431.265625 C71.07552795 431.52631775 69.91668091 431.7870105 68.72271729 432.05560303 C66.29654817 432.5993636 63.86976097 433.14037327 61.44238281 433.67871094 C57.7429291 434.50157277 54.04728353 435.34024066 50.3515625 436.1796875 C47.97938189 436.70929825 45.60699288 437.23797663 43.234375 437.765625 C42.14042419 438.01556213 41.04647339 438.26549927 39.91937256 438.52301025 C25.59840935 441.65807322 25.59840935 441.65807322 19.125 439.125 C15.61857868 436.03109883 14.14179691 432.98890086 13.76171875 428.32788086 C13.86891359 422.68933965 15.37096191 417.22446941 16.625 411.75390625 C16.89135254 410.56522446 17.15770508 409.37654266 17.43212891 408.15184021 C18.28111707 404.37045152 19.14040648 400.59149043 20 396.8125 C20.57880695 394.24299206 21.15693963 391.67333214 21.734375 389.10351562 C23.14844209 382.8172284 24.57096501 376.53290053 26 370.25 C16.66740642 369.88708213 7.33499012 369.54547085 -2 369.25 C-2.80163574 369.22373535 -3.60327148 369.1974707 -4.42919922 369.17041016 C-40.73566531 368.11922071 -79.44376398 373.73125466 -114 385.25 C-120.87932038 385.963411 -126.40187955 385.85667056 -132.28125 382.02734375 C-138.58950563 375.50403395 -138.57335402 369.3359756 -138.50793457 360.64855957 C-138.51417453 359.37753277 -138.5204145 358.10650598 -138.52684355 356.79696321 C-138.54350756 353.28025884 -138.53530418 349.7639899 -138.52289867 346.24728417 C-138.51383837 342.45034382 -138.52782275 338.65347768 -138.53881836 334.85655212 C-138.55659776 327.4228414 -138.55276621 319.98929229 -138.5411678 312.55557525 C-138.53213146 306.51364496 -138.53091034 300.47175994 -138.53526306 294.42982483 C-138.53587599 293.56965697 -138.53648893 292.70948912 -138.53712043 291.82325557 C-138.53839934 290.07579941 -138.5396962 288.32834327 -138.5410108 286.58088714 C-138.5524149 270.19790399 -138.53930557 253.8150104 -138.51780933 237.43204194 C-138.4999385 223.37701307 -138.50304265 209.32211634 -138.52148438 195.26708984 C-138.5428941 178.94242982 -138.55131628 162.61784827 -138.53903532 146.29317617 C-138.53776113 144.55217585 -138.53650365 142.81117552 -138.53526306 141.07017517 C-138.53464596 140.21358678 -138.53402886 139.35699838 -138.53339306 138.47445276 C-138.52994046 132.44031119 -138.53576655 126.40621943 -138.54518127 120.37208557 C-138.55640377 113.01769768 -138.553356 105.66348054 -138.5320583 98.30911219 C-138.52155117 94.5573071 -138.51742007 90.80578663 -138.53065491 87.05398369 C-138.54478722 82.98622184 -138.52790467 78.91917765 -138.50793457 74.85144043 C-138.51685746 73.66652024 -138.52578034 72.48160005 -138.53497362 71.26077318 C-138.45646879 63.03505604 -137.21405745 58.62084074 -131.4375 52.5625 C-127.22750513 49.277181 -122.02669853 47.85103032 -117 46.25 C-116.97421875 45.3321875 -116.9484375 44.414375 -116.921875 43.46875 C-116.55070693 35.43802258 -116.23745646 28.76918499 -110.56420898 22.71875 C-105.97610979 18.5860947 -101.55129697 16.55963399 -95.6875 14.75 C-94.77943604 14.46084717 -93.87137207 14.17169434 -92.93579102 13.8737793 C-62.80569838 4.55695271 -31.4969055 0.02309387 0 0 Z " fill="#D7EEFB" transform="translate(138,35.75)"/>
<path d="M0 0 C9.57548443 7.82274643 16.14137034 19.33785471 18.71484375 31.40625 C18.80539312 32.86742787 18.84734863 34.33208093 18.85185814 35.79605484 C18.85946995 37.11209918 18.85946995 37.11209918 18.86723554 38.45473027 C18.8677333 39.41424997 18.86823106 40.37376967 18.8687439 41.36236572 C18.87312615 42.38511054 18.8775084 43.40785535 18.88202345 44.46159244 C18.89541091 47.8992015 18.90159018 51.33678493 18.90771484 54.77441406 C18.91561575 57.23490006 18.92388469 59.69538491 18.93249512 62.15586853 C18.95644954 69.546215 18.97164128 76.93655724 18.98455518 84.32692921 C18.98826856 86.41474045 18.99224166 88.50255102 18.99630785 90.5903616 C19.02154264 103.55999654 19.04359204 116.52963258 19.056036 129.49928665 C19.0589656 132.50196588 19.06192728 135.50464507 19.06494141 138.50732422 C19.06568746 139.25360804 19.06643351 139.99989186 19.06720217 140.76879033 C19.07985657 152.85884117 19.11308261 164.94874498 19.15474324 177.03872707 C19.19717871 189.45546958 19.22073275 201.87213681 19.22595656 214.28895164 C19.22936854 221.25889953 19.24109859 228.2286175 19.2740593 235.19849396 C19.30501488 241.75500974 19.31046765 248.31119759 19.29867554 254.86779976 C19.29845444 257.27361863 19.3067895 259.67945586 19.32432938 262.0852108 C19.34698322 265.37135752 19.33874215 268.65604569 19.32284546 271.94219971 C19.33672755 272.89279652 19.35060963 273.84339333 19.36491239 274.82279611 C19.28908277 281.19069701 17.85268734 285.49958976 13.71484375 290.40625 C7.7817413 295.24959894 2.16548006 295.02218212 -5.28515625 294.40625 C-10.01381375 293.44445379 -14.59927558 292.09278887 -19.22265625 290.71875 C-68.87779388 276.58719244 -121.4326472 274.90234837 -172.11488342 284.33538818 C-176.27131669 285.09633477 -180.41082582 285.67342676 -184.61009216 286.13867188 C-207.81528575 288.84330737 -220.00604816 298.56253374 -235.37106323 315.83808899 C-248.90361436 331.04972335 -263.40125168 336.04555289 -283.05078125 340.421875 C-284.2096283 340.68256775 -285.36847534 340.9432605 -286.56243896 341.21185303 C-288.98860808 341.7556136 -291.41539528 342.29662327 -293.84277344 342.83496094 C-297.54222715 343.65782277 -301.23787272 344.49649066 -304.93359375 345.3359375 C-307.30577436 345.86554825 -309.67816337 346.39422663 -312.05078125 346.921875 C-313.14473206 347.17181213 -314.23868286 347.42174927 -315.36578369 347.67926025 C-329.6867469 350.81432322 -329.6867469 350.81432322 -336.16015625 348.28125 C-339.67690725 345.17823441 -341.15069947 342.1337336 -341.51464844 337.45776367 C-341.4099871 331.97032644 -340.00370359 326.6618865 -338.80078125 321.33203125 C-338.41548248 319.59169868 -338.41548248 319.59169868 -338.0223999 317.81620789 C-337.47785069 315.36535574 -336.92961186 312.91532084 -336.37792969 310.46606445 C-335.54242565 306.75107271 -334.72152941 303.03307299 -333.90234375 299.31445312 C-333.36936672 296.92428341 -332.83553948 294.53430309 -332.30078125 292.14453125 C-331.93802094 290.49859734 -331.93802094 290.49859734 -331.56793213 288.81941223 C-326.78374287 267.73201274 -318.30386109 254.11303422 -303.08457947 238.92478943 C-302.06102756 237.89605887 -301.03790204 236.86690391 -300.01516253 235.83736569 C-297.22348329 233.02967392 -294.42567321 230.22816443 -291.62671912 227.42772734 C-288.60120931 224.39849418 -285.58140351 221.36358302 -282.5607605 218.32949829 C-275.96474097 211.70640508 -269.36125418 205.09079134 -262.7560966 198.47681308 C-258.62727619 194.34245382 -254.4999272 190.20662778 -250.37283516 186.07054329 C-238.93175193 174.60509023 -227.48878756 163.141522 -216.03890133 151.68485928 C-214.9414001 150.58669935 -214.9414001 150.58669935 -213.82172713 149.46635437 C-212.72170375 148.36567616 -212.72170375 148.36567616 -211.59945768 147.24276203 C-210.11358392 145.75600136 -208.62771326 144.26923757 -207.1418457 142.7824707 C-206.40481348 142.04499562 -205.66778126 141.30752054 -204.90841473 140.54769773 C-192.96690008 128.59828733 -181.03895572 116.63542864 -169.11680024 104.6667062 C-156.85813262 92.36054664 -144.58818092 80.06573233 -132.30690867 67.78213078 C-125.41894847 60.89234106 -118.53585533 53.99784347 -111.665205 47.09078789 C-105.81523316 41.20992674 -99.95497193 35.3395634 -94.08130514 29.48236423 C-91.08864927 26.49748975 -88.10092935 23.5080985 -85.12630272 20.50524712 C-82.39581554 17.74909108 -79.65148396 15.00750951 -76.89611203 12.27623785 C-75.44632403 10.83215048 -74.01113589 9.37344949 -72.57676548 7.91404718 C-52.01339464 -12.34512371 -24.41711554 -17.02937289 0 0 Z " fill="#FCD98B" transform="translate(493.28515625,126.59375)"/>
<path d="M0 0 C0.6899707 0.20592773 1.37994141 0.41185547 2.09082031 0.62402344 C9.93095436 3.02439051 15.60836388 5.8652804 20 13 C22.02727491 17.08938272 22.37075596 20.77848123 22.625 25.3125 C22.73714844 27.19388672 22.73714844 27.19388672 22.8515625 29.11328125 C22.90054688 30.06589844 22.94953125 31.01851562 23 32 C23.86882812 32.27972656 24.73765625 32.55945313 25.6328125 32.84765625 C32.75432501 35.32505042 38.02507739 37.3948312 42 44 C42.34698944 44.57304871 42.69397888 45.14609741 43.05148315 45.73651123 C44.25436885 48.60701191 44.24012263 50.8508148 44.22705078 53.96191406 C44.22689972 55.16285706 44.22674866 56.36380005 44.22659302 57.60113525 C44.21627045 58.89291687 44.20594788 60.18469849 44.1953125 61.515625 C44.19158034 62.85512073 44.18873432 64.19461921 44.18673706 65.53411865 C44.17911657 69.05228265 44.15948187 72.5702804 44.1373291 76.08837891 C44.11683643 79.68129223 44.10772804 83.27423253 44.09765625 86.8671875 C44.07623434 93.91152617 44.04211765 100.95575221 44 108 C42.40268773 104.87071627 41.12567384 101.72161208 39.875 98.4375 C34.68096792 86.0412781 26.90635404 77.12407387 14.6171875 71.43359375 C1.50323503 66.191 -11.51541951 65.02686456 -24.97001171 70.11557674 C-37.7807629 75.69695194 -46.46015214 84.78469308 -56.13549805 94.58374023 C-57.82912134 96.28041516 -59.52385944 97.97597791 -61.21961975 99.67051697 C-65.32244453 103.77587287 -69.41373731 107.89245838 -73.50009229 112.01420283 C-78.26122014 116.81519323 -83.03708039 121.60141705 -87.81394324 126.38674355 C-96.33115338 134.91972753 -104.83752198 143.46343212 -113.33666992 152.0144043 C-121.58563376 160.3136065 -129.83848296 168.60890728 -138.09741211 176.89819336 C-138.60745726 177.41011753 -139.11750242 177.92204171 -139.64300349 178.44947874 C-145.20725386 184.03403455 -150.77242762 189.61766968 -156.33801746 195.20089054 C-157.81201454 196.6795871 -159.28600765 198.15828762 -160.75999554 199.63699334 C-161.73126025 200.61135289 -162.70254046 201.58569697 -163.67383645 202.56002534 C-169.85833949 208.76397367 -176.03876097 214.97194748 -182.21489275 221.18422973 C-185.74370545 224.73316065 -189.27437086 228.28024462 -192.80536461 231.82700539 C-194.44904761 233.47899058 -196.09184655 235.13185589 -197.73372269 236.7856369 C-199.96381947 239.03176515 -202.19688542 241.27489863 -204.43070984 243.51731873 C-205.08885467 244.18178699 -205.7469995 244.84625526 -206.42508811 245.53085893 C-207.93114717 247.03968908 -209.46264973 248.52306518 -211 250 C-211.33 250 -211.66 250 -212 250 C-212.09121133 219.49353196 -212.16201848 188.98708884 -212.20426132 158.48051645 C-212.20926426 154.88056543 -212.21444154 151.28061468 -212.21972656 147.68066406 C-212.2207758 146.96396576 -212.22182505 146.24726746 -212.22290608 145.50885102 C-212.24032077 133.89762977 -212.27186427 122.28648758 -212.30861118 110.67531326 C-212.34599109 98.76496818 -212.36822959 86.85466456 -212.37635398 74.94426322 C-212.3813544 68.25274059 -212.39389519 61.56140856 -212.42292023 54.86994171 C-212.45 48.57615312 -212.45845999 42.28261847 -212.45243073 35.98877716 C-212.45353429 33.67481101 -212.46153209 31.36083667 -212.4768219 29.04692078 C-212.49663295 25.89508051 -212.49197123 22.7442074 -212.48101807 19.59234619 C-212.49266943 18.67016997 -212.5043208 17.74799374 -212.51632524 16.79787278 C-212.45796871 10.61373244 -212.45796871 10.61373244 -210.1112175 7.46880722 C-207.84485657 5.89206428 -205.85618615 4.9457583 -203.23828125 4.0703125 C-201.82675781 3.59416504 -201.82675781 3.59416504 -200.38671875 3.10839844 C-199.37222656 2.78387695 -198.35773438 2.45935547 -197.3125 2.125 C-196.2503125 1.77985352 -195.188125 1.43470703 -194.09375 1.07910156 C-174.78243315 -5.05354636 -155.05085958 -9.18287888 -135 -12 C-133.77458496 -12.17789063 -133.77458496 -12.17789063 -132.52441406 -12.359375 C-88.50463417 -18.47879827 -42.26254678 -12.90418795 0 0 Z " fill="#D3EAFE" transform="translate(468,50)"/>
<path d="M0 0 C0.33 0 0.66 0 1 0 C1.11410443 29.80138227 1.20256973 59.60275718 1.25532665 89.40431088 C1.26158005 92.92400058 1.26805168 96.44368985 1.2746582 99.96337891 C1.27662553 101.01442289 1.27662553 101.01442289 1.2786326 102.08670008 C1.30037918 113.42688363 1.33979651 124.76694023 1.38576398 136.10704851 C1.43254959 147.74620966 1.45992565 159.38529682 1.47044247 171.02454758 C1.47696239 177.56086427 1.49229227 184.09689319 1.52865028 190.63311768 C1.56259734 196.78578539 1.57305529 202.93804686 1.56553841 209.09079933 C1.5669135 211.34826681 1.57685323 213.60574792 1.59602737 215.86313438 C1.62094452 218.94807224 1.61490921 222.03148104 1.60127258 225.11645508 C1.62311889 226.45306026 1.62311889 226.45306026 1.64540654 227.81666756 C1.57141609 234.01912695 -0.0107615 238.21101843 -4 243 C-9.93310245 247.84334894 -15.54936369 247.61593212 -23 247 C-27.7286575 246.03820379 -32.31411933 244.68653887 -36.9375 243.3125 C-95.4341177 226.66470967 -157.21178606 227.629326 -215.87719727 242.7644043 C-217.00440186 243.05484619 -218.13160645 243.34528809 -219.29296875 243.64453125 C-220.77059692 244.03668823 -220.77059692 244.03668823 -222.27807617 244.43676758 C-224.93765757 244.98709983 -227.29341976 245.10698067 -230 245 C-225.34889288 239.41233791 -220.38734403 234.2556074 -215.23254395 229.13247681 C-213.92650923 227.82833551 -213.92650923 227.82833551 -212.59408998 226.49784791 C-210.19249594 224.10068249 -207.78867931 221.70578646 -205.38390374 219.31181526 C-202.78485723 216.72330185 -200.18877884 214.1318148 -197.59239197 211.54063416 C-193.09712763 207.05505901 -188.60019586 202.57116129 -184.10227966 198.08824539 C-176.98894348 190.99833818 -169.88084117 183.90319634 -162.77355957 176.80722046 C-160.33894667 174.37660848 -157.90429988 171.94603044 -155.46964264 169.51546288 C-154.8612901 168.90812957 -154.25293756 168.30079626 -153.6261501 167.67505891 C-146.70948681 160.77012598 -139.79174891 153.86627009 -132.87353516 146.96289062 C-132.24150108 146.33220898 -131.60946701 145.70152734 -130.95828038 145.05173413 C-120.71291725 134.82855813 -110.46371906 124.60923357 -100.21355182 114.3908747 C-89.67838538 103.88812078 -79.14900358 93.37959081 -68.62452841 82.86612356 C-62.13887671 76.38768538 -55.64853875 69.91401499 -49.15204895 63.44644485 C-44.69953662 59.01296118 -40.25252688 54.57400734 -35.80976355 50.13075449 C-33.24879459 47.56984841 -30.68546304 45.01143276 -28.11544609 42.45960426 C-25.32459145 39.68838514 -22.5455465 36.90550827 -19.76745605 34.12149048 C-18.96025383 33.3237089 -18.15305161 32.52592733 -17.32138872 31.70397055 C-10.14043921 24.47174952 -4.83209572 17.32952441 -2.125 7.4375 C-1.91359375 6.71498047 -1.7021875 5.99246094 -1.484375 5.24804688 C-0.9757853 3.5026595 -0.48579431 1.75186885 0 0 Z " fill="#82C4FD" transform="translate(511,174)"/>
<path d="M0 0 C0.00146521 0.95454719 0.00146521 0.95454719 0.00296003 1.92837816 C0.06122442 39.63949207 0.13501541 77.35054587 0.22898628 115.06158832 C0.24025453 119.58899155 0.25139297 124.11639508 0.26245117 128.64379883 C0.26465486 129.54512832 0.26685854 130.4464578 0.269129 131.37510031 C0.3045072 145.97177911 0.32936838 160.56845786 0.35034702 175.16516364 C0.37210491 190.14128613 0.40515522 205.11735294 0.44870156 220.09342808 C0.47521847 229.33543241 0.49291355 238.57736738 0.49934604 247.81940787 C0.5045998 254.15590572 0.52081637 260.49231625 0.54566566 266.82876731 C0.55968109 270.48528321 0.56885133 274.14164281 0.56500816 277.79818726 C0.56096707 281.76328557 0.58000508 285.72808284 0.60127258 289.69313049 C0.59642501 290.84780699 0.59157743 292.00248348 0.58658296 293.19215018 C0.6503083 300.37514625 1.14401601 305.69776851 6 311.3125 C11.50827064 315.96010335 16.03814919 315.55821349 23 315 C27.2039907 314.18945323 31.26902353 313.01761229 35.375 311.8125 C45.5063384 309.01189791 55.577046 306.82465112 65.9375 305.125 C67.16194824 304.92237549 68.38639648 304.71975098 69.64794922 304.51098633 C80.94613368 302.71920718 92.10211327 301.84352801 103.5390625 301.8671875 C104.5859726 301.86623077 105.63288269 301.86527405 106.71151733 301.86428833 C108.90468405 301.86361348 111.09785285 301.86541876 113.29101562 301.86962891 C116.62374395 301.87499798 119.95633822 301.86965451 123.2890625 301.86328125 C125.43489613 301.86394194 127.58072967 301.86522293 129.7265625 301.8671875 C131.20039902 301.86415115 131.20039902 301.86415115 132.70401001 301.86105347 C138.85935502 301.88166104 144.88801848 302.26949465 151 303 C150.59007812 303.92941406 150.18015625 304.85882813 149.7578125 305.81640625 C149.21331134 307.06500375 148.66905352 308.31370739 148.125 309.5625 C147.85558594 310.17158203 147.58617187 310.78066406 147.30859375 311.40820312 C145.51374991 315.54509929 144.15585979 319.64027642 143 324 C142.20529297 323.96970703 141.41058594 323.93941406 140.59179688 323.90820312 C131.72871099 323.57461854 122.86517117 323.27267872 114 323 C113.18273437 322.97373535 112.36546875 322.9474707 111.5234375 322.92041016 C75.22922211 321.87962016 36.54457336 327.48514221 2 339 C-4.87932038 339.713411 -10.40187955 339.60667056 -16.28125 335.77734375 C-22.58950563 329.25403395 -22.57335402 323.0859756 -22.50793457 314.39855957 C-22.51417453 313.12753277 -22.5204145 311.85650598 -22.52684355 310.54696321 C-22.54350756 307.03025884 -22.53530418 303.5139899 -22.52289867 299.99728417 C-22.51383837 296.20034382 -22.52782275 292.40347768 -22.53881836 288.60655212 C-22.55659776 281.1728414 -22.55276621 273.73929229 -22.5411678 266.30557525 C-22.53213146 260.26364496 -22.53091034 254.22175994 -22.53526306 248.17982483 C-22.53587599 247.31965697 -22.53648893 246.45948912 -22.53712043 245.57325557 C-22.53839934 243.82579941 -22.5396962 242.07834327 -22.5410108 240.33088714 C-22.5524149 223.94790399 -22.53930557 207.5650104 -22.51780933 191.18204194 C-22.4999385 177.12701307 -22.50304265 163.07211634 -22.52148438 149.01708984 C-22.5428941 132.69242982 -22.55131628 116.36784827 -22.53903532 100.04317617 C-22.53776113 98.30217585 -22.53650365 96.56117552 -22.53526306 94.82017517 C-22.53464596 93.96358678 -22.53402886 93.10699838 -22.53339306 92.22445276 C-22.52994046 86.19031119 -22.53576655 80.15621943 -22.54518127 74.12208557 C-22.55640377 66.76769768 -22.553356 59.41348054 -22.5320583 52.05911219 C-22.52155117 48.3073071 -22.51742007 44.55578663 -22.53065491 40.80398369 C-22.54478722 36.73622184 -22.52790467 32.66917765 -22.50793457 28.60144043 C-22.51685746 27.41652024 -22.52578034 26.23160005 -22.53497362 25.01077318 C-22.45646879 16.78505604 -21.21405745 12.37084074 -15.4375 6.3125 C-11.57007485 3.30228764 -4.97556625 0 0 0 Z " fill="#52CFFA" transform="translate(22,82)"/>
<path d="M0 0 C0.33 0 0.66 0 1 0 C1.11410443 29.80138227 1.20256973 59.60275718 1.25532665 89.40431088 C1.26158005 92.92400058 1.26805168 96.44368985 1.2746582 99.96337891 C1.27662553 101.01442289 1.27662553 101.01442289 1.2786326 102.08670008 C1.30037918 113.42688363 1.33979651 124.76694023 1.38576398 136.10704851 C1.43254959 147.74620966 1.45992565 159.38529682 1.47044247 171.02454758 C1.47696239 177.56086427 1.49229227 184.09689319 1.52865028 190.63311768 C1.56259734 196.78578539 1.57305529 202.93804686 1.56553841 209.09079933 C1.5669135 211.34826681 1.57685323 213.60574792 1.59602737 215.86313438 C1.62094452 218.94807224 1.61490921 222.03148104 1.60127258 225.11645508 C1.62311889 226.45306026 1.62311889 226.45306026 1.64540654 227.81666756 C1.57141609 234.01912695 -0.0107615 238.21101843 -4 243 C-9.93310245 247.84334894 -15.54936369 247.61593212 -23 247 C-27.7286575 246.03820379 -32.31411933 244.68653887 -36.9375 243.3125 C-95.43865991 226.66341698 -157.40532425 227.52910714 -216.05297852 242.85229492 C-217.75345337 243.29279175 -217.75345337 243.29279175 -219.48828125 243.7421875 C-220.48384033 244.0088623 -221.47939941 244.27553711 -222.50512695 244.55029297 C-225 245 -225 245 -228 244 C-199.79914257 212.31645277 -199.79914257 212.31645277 -184.23193359 211.03808594 C-182.66151107 210.98390122 -181.0890015 210.96771279 -179.51800537 211.00138855 C-177.09926804 211.00005474 -174.80599171 210.80169668 -172.40576172 210.51782227 C-166.84449306 209.93477029 -161.32688295 209.80457975 -155.73828125 209.76171875 C-154.68172836 209.75197021 -153.62517548 209.74222168 -152.53660583 209.73217773 C-129.36017237 209.56238624 -106.84105121 209.74700379 -84 214 C-82.90929199 214.19787109 -81.81858398 214.39574219 -80.69482422 214.59960938 C-69.57581506 216.65726701 -58.59958095 219.13276418 -47.79174805 222.47631836 C-41.95924478 224.23009858 -36.39364903 225.22390351 -30.8125 222.3125 C-26.28283417 219.83698495 -23.64663626 216.93990878 -22 212 C-21.91669099 209.66359606 -21.89722384 207.32478193 -21.90907288 204.98692322 C-21.9122494 203.90947864 -21.9122494 203.90947864 -21.91549009 202.81026751 C-21.92356502 200.39682692 -21.93860155 197.98347654 -21.95336914 195.57006836 C-21.96015806 193.84203296 -21.96636968 192.11399522 -21.9720459 190.38595581 C-21.98451057 186.66022256 -21.99910491 182.93450535 -22.01472664 179.2087841 C-22.0374368 173.31232273 -22.04312363 167.41592522 -22.04405212 161.51942444 C-22.04423389 160.52422993 -22.04441566 159.52903542 -22.04460293 158.50368351 C-22.04505288 154.39700783 -22.0449705 150.29033227 -22.0447675 146.18365657 C-22.04503212 134.5262563 -22.06172425 122.869393 -22.12670898 111.2121582 C-22.17820546 101.95381599 -22.19432165 92.69616912 -22.16924757 83.43770701 C-22.15731947 78.53967198 -22.16315269 73.64312079 -22.21193123 68.74528313 C-22.25748133 64.13250551 -22.25596339 59.52208514 -22.21918488 54.90925217 C-22.21393738 53.22184102 -22.22560593 51.53427397 -22.25597191 49.84712791 C-22.47098846 37.11228106 -22.47098846 37.11228106 -18.80926323 31.85418892 C-16.32152007 29.36465615 -13.74151201 27.20003947 -11 25 C-4.7193249 17.73261979 -2.51624794 9.07407996 0 0 Z " fill="#069CF5" transform="translate(511,174)"/>
<path d="M0 0 C0.66 0.33 1.32 0.66 2 1 C1.50312685 1.49535427 1.0062537 1.99070854 0.49432379 2.50107354 C-28.93581823 31.8417578 -58.35555653 61.1928379 -87.76176819 90.55750687 C-91.29040294 94.08113862 -94.81912475 97.60468317 -98.34790039 101.12817383 C-99.05043255 101.82965675 -99.75296471 102.53113967 -100.47678573 103.25387964 C-111.86133231 114.62100768 -123.25292231 125.98105199 -134.64711808 137.3385069 C-146.33319387 148.98721363 -158.01169809 160.64347079 -169.68316704 172.30681306 C-176.88883633 179.50698621 -184.10038886 186.70116217 -191.31951214 193.88784627 C-196.26530674 198.8125428 -201.20374614 203.74453541 -206.13639956 208.68239405 C-208.98507577 211.53363937 -211.83694464 214.38149256 -214.69757271 217.22075081 C-217.31473345 219.81850218 -219.92255994 222.42525344 -222.52316809 225.03957251 C-223.91549577 226.43440094 -225.31772264 227.81932601 -226.72023672 229.20391148 C-227.54082573 230.03246469 -228.36141474 230.86101789 -229.20687008 231.71467876 C-230.27711183 232.78264219 -230.27711183 232.78264219 -231.36897463 233.87218064 C-233.25624461 236.33429415 -233.81554278 237.91284476 -234 241 C-233.38125 242.093125 -232.7625 243.18625 -232.125 244.3125 C-229.4471536 249.05092651 -229.51660686 253.96858546 -229.59228516 259.27661133 C-229.54153455 263.23084983 -229.14166976 264.82802164 -226.58984375 267.92578125 C-222.59024664 271.12907848 -220.33978319 271.12458606 -215.25 271.3125 C-209.53172652 271.68746875 -206.1317954 271.9829767 -202 276 C-199.8190719 279.40530878 -199.71602078 282.38345969 -199.5625 286.375 C-199.13812793 293.12325654 -199.13812793 293.12325654 -196 299 C-191.21518287 302.65157097 -185.91768344 302.42988881 -180.12109375 302.59375 C-176.67365995 303.0424773 -174.89541915 304.15094519 -172 306 C-169.80480783 306.55672814 -169.80480783 306.55672814 -167.6875 306.6875 C-166.470625 306.790625 -165.25375 306.89375 -164 307 C-169.09791309 318.13424048 -182.1213532 328.04769261 -193 333 C-201.46637496 335.86453574 -210.04781219 338.0740031 -218.765625 340.015625 C-219.92447205 340.27631775 -221.08331909 340.5370105 -222.27728271 340.80560303 C-224.70345183 341.3493636 -227.13023903 341.89037327 -229.55761719 342.42871094 C-233.2570709 343.25157277 -236.95271647 344.09024066 -240.6484375 344.9296875 C-243.02061811 345.45929825 -245.39300712 345.98797663 -247.765625 346.515625 C-248.85957581 346.76556213 -249.95352661 347.01549927 -251.08062744 347.27301025 C-265.40159065 350.40807322 -265.40159065 350.40807322 -271.875 347.875 C-275.391751 344.77198441 -276.86554322 341.7274836 -277.22949219 337.05151367 C-277.12483085 331.56407644 -275.71854734 326.2556365 -274.515625 320.92578125 C-274.13032623 319.18544868 -274.13032623 319.18544868 -273.73724365 317.40995789 C-273.19269444 314.95910574 -272.64445561 312.50907084 -272.09277344 310.05981445 C-271.2572694 306.34482271 -270.43637316 302.62682299 -269.6171875 298.90820312 C-269.08421047 296.51803341 -268.55038323 294.12805309 -268.015625 291.73828125 C-267.65286469 290.09234734 -267.65286469 290.09234734 -267.28277588 288.41316223 C-262.48807737 267.27944086 -253.99235826 253.65517398 -238.70521545 238.46470642 C-237.67167234 237.43028953 -236.63856953 236.39543256 -235.60586542 235.36017805 C-232.78715573 232.53702477 -229.96229648 229.72009789 -227.13633621 226.90420496 C-224.08234919 223.8588935 -221.03418399 220.80776419 -217.98529053 217.75735474 C-212.70882586 212.4798438 -207.42872571 207.20599317 -202.14610481 201.9346447 C-194.50842513 194.31325219 -186.87630544 186.68631163 -179.24551063 179.0580265 C-166.86346736 166.68035529 -154.47696881 154.30715256 -142.08764648 141.93676758 C-130.05600015 129.92349271 -118.02646619 117.90810906 -105.99975586 105.88989258 C-105.25783302 105.14849519 -104.51591019 104.4070978 -103.75150485 103.64323383 C-100.02933111 99.92367026 -96.30719874 96.20406528 -92.58508694 92.48443973 C-61.72980262 61.64987268 -30.86727804 30.82256029 0 0 Z " fill="#FEC5AE" transform="translate(429,127)"/>
<path d="M0 0 C0.87773575 -0.00947159 1.7554715 -0.01894318 2.6598053 -0.02870178 C3.6118132 -0.03308762 4.56382111 -0.03747345 5.54467773 -0.04199219 C7.03196632 -0.0523777 7.03196632 -0.0523777 8.54930115 -0.06297302 C11.77566421 -0.08035229 15.00186367 -0.08657317 18.22827148 -0.08886719 C19.86687134 -0.09087631 19.86687134 -0.09087631 21.53857422 -0.09292603 C37.77705514 -0.08858787 53.62668404 0.40045815 69.66577148 3.16113281 C70.52074219 3.30518555 71.37571289 3.44923828 72.2565918 3.59765625 C76.74541829 4.36761832 81.21070797 5.21224466 85.66577148 6.16113281 C79.67340432 13.44616781 72.92882666 19.92345834 66.18920898 26.51074219 C65.28170898 27.40728516 64.37420898 28.30382812 63.43920898 29.22753906 C62.20823486 30.43325562 62.20823486 30.43325562 60.95239258 31.66333008 C58.49575597 34.09229205 58.49575597 34.09229205 57.1550293 37.43945312 C54.16715332 40.70630693 53.39576217 40.60293797 49.11645508 40.79467773 C46.76524947 40.77334206 44.41420373 40.72000903 42.06420898 40.64160156 C40.79976959 40.62599686 39.5353302 40.61039215 38.23257446 40.59431458 C34.85158921 40.54983305 31.47302514 40.48129371 28.09289551 40.39825439 C-0.89362 39.69734317 -28.32903018 41.36052154 -56.41625977 48.75097656 C-57.47055176 49.02514404 -58.52484375 49.29931152 -59.61108398 49.58178711 C-61.64921576 50.1165881 -63.6837917 50.66522378 -65.71362305 51.23071289 C-72.78608939 53.10212772 -81.65566942 55.27087447 -88.61083984 52.13452148 C-92.7514494 49.44298376 -95.48770609 46.03441491 -96.89744568 41.24945068 C-97.62706947 37.76102057 -97.45510603 34.22514873 -97.43188477 30.67675781 C-97.43046982 29.86116394 -97.42905487 29.04557007 -97.42759705 28.20526123 C-97.42201155 25.6071807 -97.40946172 23.00918718 -97.39672852 20.41113281 C-97.39171164 18.64681114 -97.38714906 16.88248812 -97.38305664 15.11816406 C-97.37204687 10.79912025 -97.35479221 6.48014127 -97.33422852 2.16113281 C-96.02597072 4.12351951 -94.77260595 6.12391435 -93.58422852 8.16113281 C-90.94335149 11.68230219 -89.51336293 12.7934161 -85.33422852 14.16113281 C-78.94425445 14.87553985 -73.94691779 14.11294495 -67.94628906 12.0078125 C-62.85458327 10.35737455 -57.61463259 9.27318692 -52.39672852 8.09863281 C-51.28104492 7.84275391 -50.16536133 7.586875 -49.01586914 7.32324219 C-45.79159872 6.58847875 -42.56413944 5.87065086 -39.33422852 5.16113281 C-38.46258057 4.96608154 -37.59093262 4.77103027 -36.69287109 4.57006836 C-30.45447692 3.235967 -24.25196205 2.59345465 -17.89672852 2.09863281 C-15.96026507 1.94437865 -14.02404956 1.78697016 -12.08813477 1.62597656 C-11.24581299 1.56015381 -10.40349121 1.49433105 -9.53564453 1.42651367 C-6.20151641 1.02458429 -3.40976059 0.03032946 0 0 Z " fill="#9EC4EB" transform="translate(119.334228515625,344.8388671875)"/>
<path d="M0 0 C0 3.6029077 -1.01371195 4.36924423 -3.45485115 6.84209508 C-3.96845633 7.34696173 -4.4820615 7.85182838 -5.01123047 8.37199402 C-5.81977384 9.1843823 -5.81977384 9.1843823 -6.64465141 10.01318246 C-8.46176507 11.83525729 -10.28943168 13.6463689 -12.1171875 15.45776367 C-13.41830766 16.75803807 -14.71876847 18.05897252 -16.01861572 19.36051941 C-19.55726969 22.90003672 -23.10511996 26.43020628 -26.6546402 29.95882201 C-30.35957137 33.64504287 -34.05605022 37.33971925 -37.75341797 41.03352356 C-44.7597901 48.03055861 -51.77377685 55.01990905 -58.79050255 62.00655967 C-66.77689719 69.95946204 -74.75480971 77.92084983 -82.73200607 85.88297689 C-99.14522169 102.2648058 -115.56910926 118.63590057 -132 135 C-130.99455139 134.99116287 -129.98910278 134.98232574 -128.95318604 134.97322083 C-125.13941086 134.94213794 -121.32564625 134.92311161 -117.51177979 134.90730286 C-115.87675073 134.89893721 -114.24173378 134.88751629 -112.60675049 134.87269592 C-84.78027223 134.62720593 -57.46696964 139.39804095 -30.6875 146.8125 C-18.80992537 150.07055535 -18.80992537 150.07055535 -7.0625 147.4375 C-3.41067823 144.53094798 -2.00440235 142.16915689 0 138 C0.33 138 0.66 138 1 138 C1.09930776 143.28355502 1.17167464 148.56655984 1.21972656 153.85083008 C1.23977001 155.64617382 1.26701251 157.44145287 1.30175781 159.23657227 C1.35059849 161.8258465 1.3730412 164.4142534 1.390625 167.00390625 C1.41127014 167.79898087 1.43191528 168.59405548 1.45318604 169.41322327 C1.45544245 175.09121795 0.23456974 178.31477249 -3 183 C-7.45433556 187.22590809 -11.58855793 189.30168198 -17.78271484 189.22753906 C-22.68895262 188.72405815 -27.40259143 187.11526575 -32.125 185.75 C-43.68758792 182.53817002 -55.15219883 179.88969914 -67 178 C-68.28414795 177.77570313 -68.28414795 177.77570313 -69.59423828 177.546875 C-86.04509337 174.7441591 -102.54645639 174.68327551 -119.1875 174.625 C-120.83952927 174.61321716 -120.83952927 174.61321716 -122.52493286 174.60119629 C-137.89341108 174.51602466 -152.83496582 175.43807195 -168 178 C-168.79030106 178.10438385 -169.58060211 178.2087677 -170.39485168 178.3163147 C-176.68627616 179.33931258 -179.91653011 181.9683009 -184.22265625 186.5390625 C-185.16908241 187.50034561 -185.16908241 187.50034561 -186.1346283 188.48104858 C-188.1277611 190.51307608 -190.09503708 192.56813981 -192.0625 194.625 C-193.41697775 196.01462324 -194.77308318 197.40266194 -196.13085938 198.7890625 C-199.43967757 202.17467508 -202.72554089 205.58115879 -206 209 C-206.66 208.67 -207.32 208.34 -208 208 C-139.36 139.36 -70.72 70.72 0 0 Z " fill="#6BABE7" transform="translate(489,210)"/>
<path d="M0 0 C1.0469101 -0.00095673 2.09382019 -0.00191345 3.17245483 -0.00289917 C5.36562155 -0.00357402 7.55879035 -0.00176874 9.75195312 0.00244141 C13.08468145 0.00781048 16.41727572 0.00246701 19.75 -0.00390625 C21.89583363 -0.00324556 24.04166717 -0.00196457 26.1875 0 C27.66133652 -0.00303635 27.66133652 -0.00303635 29.16494751 -0.00613403 C35.32029252 0.01447354 41.34895598 0.40230715 47.4609375 1.1328125 C47.05101562 2.06222656 46.64109375 2.99164063 46.21875 3.94921875 C45.67424884 5.19781625 45.12999102 6.44651989 44.5859375 7.6953125 C44.18181641 8.60893555 44.18181641 8.60893555 43.76953125 9.54101562 C41.97468741 13.67791179 40.61679729 17.77308892 39.4609375 22.1328125 C38.66623047 22.10251953 37.87152344 22.07222656 37.05273438 22.04101562 C28.18964849 21.70743104 19.32610867 21.40549122 10.4609375 21.1328125 C9.64367187 21.10654785 8.82640625 21.0802832 7.984375 21.05322266 C-18.34250679 20.2982606 -46.07322931 23.12496345 -71.7109375 29.3515625 C-75.19742099 30.06308974 -76.37515206 30.28602894 -79.5390625 29.1328125 C-80.89590001 27.4852241 -82.22362971 25.81364329 -83.5390625 24.1328125 C-85.53028131 22.32738693 -87.56970229 20.59679133 -89.63671875 18.87890625 C-91.56522645 17.10879754 -93.0375006 15.27055015 -94.5390625 13.1328125 C-93.84167969 13.21402344 -93.14429688 13.29523438 -92.42578125 13.37890625 C-83.71832302 13.89986529 -76.3873401 12.25891595 -68.0390625 9.9453125 C-57.941258 7.15365027 -47.92853285 4.95007412 -37.6015625 3.2578125 C-36.37695312 3.05518799 -35.15234375 2.85256348 -33.890625 2.64379883 C-22.59265318 0.85180809 -11.43675855 -0.02365909 0 0 Z " fill="#149CFA" transform="translate(125.5390625,383.8671875)"/>
<path d="M0 0 C3.97019795 0.01847062 7.94016352 0.02050723 11.91040039 0.02026367 C14.48527217 0.02517402 17.0601424 0.03100021 19.63500977 0.0378418 C20.79675217 0.03895462 21.95849457 0.04006744 23.15544128 0.04121399 C47.92037405 0.18234598 47.92037405 0.18234598 53.24829102 5.20581055 C54.39192213 7.49307278 54.51331034 9.03433482 54.62329102 11.58081055 C54.67227539 12.35166992 54.72125977 13.1225293 54.77172852 13.91674805 C53.98200462 17.37031671 52.16027052 18.2986599 49.24829102 20.20581055 C46.18469238 20.67337036 46.18469238 20.67337036 42.71508789 20.62817383 C41.40761597 20.62141632 40.10014404 20.61465881 38.75305176 20.60769653 C37.32438053 20.58055695 35.89571031 20.55336426 34.46704102 20.52612305 C32.97425919 20.51354285 31.48145823 20.50307586 29.98864746 20.49459839 C26.040788 20.46798037 22.09354615 20.41925724 18.14599609 20.3638916 C11.16990541 20.26764272 4.19361021 20.20050546 -2.78295898 20.15112305 C-3.5411795 20.14509315 -4.29940002 20.13906326 -5.08059692 20.13285065 C-18.06317457 20.04441759 -30.87454201 20.68426024 -43.81225586 21.76391602 C-57.73453133 22.87008983 -57.73453133 22.87008983 -61.81420898 20.20581055 C-64.29960988 16.35744788 -64.69918544 13.6634617 -63.75170898 9.20581055 C-62.25170898 6.33081055 -62.25170898 6.33081055 -59.75170898 4.20581055 C-53.45273501 2.27220713 -47.22214921 1.59830963 -40.66967773 1.0925293 C-39.5893779 1.00823166 -38.50907806 0.92393402 -37.39604187 0.83708191 C-24.93710454 -0.0443963 -12.48441715 -0.06002498 0 0 Z " fill="#7CACDF" transform="translate(156.751708984375,208.794189453125)"/>
<path d="M0 0 C2.9548887 0.01093246 5.90973192 0.01046467 8.86463737 0.00986195 C11.75942242 0.01013572 14.65417864 0.01564641 17.54895401 0.02286339 C19.55386258 0.02748766 21.55877702 0.0293051 23.56369019 0.03102112 C45.68634312 0.14516129 45.68634312 0.14516129 51.3190918 4.19561768 C53.78114657 7.88869984 53.88951692 10.90878646 53.3190918 15.19561768 C51.57655835 18.43175122 50.84723236 19.01957082 47.3190918 20.19561768 C45.08003308 20.27545492 42.83857569 20.29244345 40.59814453 20.27740479 C39.5774865 20.27280495 39.5774865 20.27280495 38.53620911 20.26811218 C37.05482756 20.26095404 35.57345554 20.25156243 34.09210014 20.24021721 C31.71976463 20.2227186 29.34749782 20.2124871 26.97511292 20.20429993 C20.22732007 20.17999017 13.47961608 20.14528177 6.73193359 20.09967041 C-11.51922582 19.98050312 -29.56878226 20.04412814 -47.75878906 21.76031494 C-57.85027449 22.68784506 -57.85027449 22.68784506 -62.0559082 20.19561768 C-64.6809082 17.19561768 -64.6809082 17.19561768 -65.3684082 13.25811768 C-65.02496081 8.60836838 -62.94923474 6.38612691 -59.6809082 3.19561768 C-44.54178914 -4.37394186 -17.03973593 -0.07965614 0 0 Z " fill="#7BACDF" transform="translate(157.680908203125,299.80438232421875)"/>
<path d="M0 0 C4.12859219 0.0002076 8.25652957 -0.02765963 12.38496399 -0.06154442 C15.61235671 -0.0837505 18.83958582 -0.08784033 22.06704712 -0.08678055 C23.59162771 -0.0891241 25.11621366 -0.0978766 26.64071655 -0.11344528 C28.75136639 -0.13308242 30.86051658 -0.12729035 32.97119141 -0.11523438 C34.16421875 -0.11808441 35.35724609 -0.12093445 36.58642578 -0.12387085 C40.59104399 0.47782452 42.73712529 1.85549891 45.87744141 4.37060547 C47.98956644 7.53879302 48.20900605 9.50279798 48.43603516 13.23779297 C47.5337236 16.68298255 45.59568861 18.14538436 42.87744141 20.37060547 C40.1619975 20.83700481 38.08847035 20.99911815 35.38769531 20.92236328 C34.65028107 20.92148712 33.91286682 20.92061096 33.15310669 20.91970825 C30.71929038 20.91114204 28.28742286 20.86735378 25.85400391 20.82373047 C24.14831997 20.81184592 22.44261794 20.80234305 20.73690796 20.79510498 C16.241079 20.77035972 11.74607727 20.7165376 7.25061035 20.65563965 C0.95900917 20.57543312 -5.33297413 20.53376385 -11.62490845 20.48895264 C-14.96982978 20.46510204 -18.31432056 20.43007803 -21.6590271 20.38555908 C-31.20851873 20.27547279 -40.60169488 20.61008842 -50.12255859 21.37060547 C-53.02324142 21.55339436 -55.90311212 21.66918423 -58.81005859 21.74560547 C-60.76492187 21.81908203 -60.76492187 21.81908203 -62.75927734 21.89404297 C-66.12255859 21.37060547 -66.12255859 21.37060547 -68.54443359 19.06201172 C-70.64609828 15.47773704 -70.76948935 13.46783358 -70.12255859 9.37060547 C-68.32360185 6.40332258 -66.27555003 3.94710119 -63.12255859 2.37060547 C-42.26322491 -0.18353856 -20.97832877 -0.00565812 0 0 Z " fill="#7BACDF" transform="translate(163.12255859375,163.62939453125)"/>
<path d="M0 0 C3.40391644 0.00010307 6.80763106 -0.01375632 10.21149921 -0.03077221 C13.52682568 -0.04463065 16.84211575 -0.04398053 20.1574707 -0.04516602 C21.35970779 -0.05235153 22.56194489 -0.05953705 23.8006134 -0.06694031 C41.94503376 -0.01809945 41.94503376 -0.01809945 47.41918945 4.31030273 C49.08201723 7.95268739 49.92279605 11.27906495 48.73168945 15.18530273 C46.07855898 18.47848336 44.61883712 20.02722228 40.39511108 20.77984619 C39.12479034 20.76572693 37.8544696 20.75160767 36.5456543 20.73706055 C35.84082916 20.73618439 35.13600403 20.73530823 34.40982056 20.73440552 C32.08660105 20.72584685 29.76542928 20.68208471 27.44262695 20.63842773 C25.81704219 20.62654585 24.19143848 20.61704191 22.56582642 20.60980225 C18.28545134 20.58506987 14.00594677 20.53123723 9.72595215 20.47033691 C3.72149448 20.39002376 -2.28337063 20.34861372 -8.28817749 20.3036499 C-11.48161467 20.27968749 -14.67461269 20.24460752 -17.86782837 20.20025635 C-24.96801135 20.11426688 -31.96273273 20.18131272 -39.03356934 20.94436646 C-43.90966651 21.47007776 -48.80658788 21.45201561 -53.70581055 21.49780273 C-54.76735352 21.52680664 -55.82889648 21.55581055 -56.92260742 21.58569336 C-58.45304687 21.59826172 -58.45304687 21.59826172 -60.0144043 21.61108398 C-60.92891357 21.6256665 -61.84342285 21.64024902 -62.78564453 21.65527344 C-66.08125755 21.0314112 -67.2481284 19.81834587 -69.26831055 17.18530273 C-69.86631443 12.47602214 -69.98577691 10.36399748 -67.51831055 6.31030273 C-64.12638927 3.10682153 -61.30728174 1.97511389 -56.68505859 1.59472656 C-55.80248383 1.52138092 -54.91990906 1.44803528 -54.0105896 1.37246704 C-36.02754429 0.14509953 -18.01852326 -0.00285619 0 0 Z " fill="#7CACDF" transform="translate(162.268310546875,72.814697265625)"/>
<path d="M0 0 C1.40364081 0.00005588 2.80728173 -0.00037521 4.21092224 -0.001297 C8.91370802 -0.0043688 13.61632068 0.00435537 18.31908417 0.01961517 C19.52226288 0.02081863 20.72544159 0.02202209 21.96508026 0.02326202 C28.61394098 0.05999947 35.13297602 0.36888668 41.73314667 1.18758392 C41.73314667 1.84758392 41.73314667 2.50758392 41.73314667 3.18758392 C39.26393266 4.83998569 36.69689319 6.27946625 34.11595917 7.75008392 C31.84197003 9.15890142 30.55747102 10.41601168 28.9048233 12.56491852 C25.39456509 16.94090419 22.20517378 20.20938085 16.54845428 21.14507294 C11.41178386 21.64864913 6.27556738 21.6035805 1.11986542 21.55867767 C-0.78203992 21.57518779 -2.68391669 21.59535487 -4.58574677 21.61899567 C-8.55431896 21.65796815 -12.52104895 21.66388283 -16.48975372 21.64388275 C-21.57282592 21.61937864 -26.65265044 21.66106596 -31.7352953 21.72521114 C-35.65493117 21.77031633 -39.57433027 21.78915918 -43.49419975 21.79917336 C-45.3684997 21.80548267 -47.24278957 21.81793567 -49.1170063 21.8366909 C-51.73324414 21.85722523 -54.34720854 21.84446987 -56.96338654 21.82210541 C-57.73386322 21.83372208 -58.5043399 21.84533875 -59.29816437 21.85730743 C-63.28377228 21.78544367 -65.08427604 21.33174983 -68.25066376 18.83152008 C-70.26685333 16.18758392 -70.26685333 16.18758392 -70.82935333 13.25008392 C-70.12028296 9.38958967 -68.74320275 7.21423321 -66.26685333 4.18758392 C-61.31963282 1.10106136 -55.5597528 1.41769443 -49.89185333 1.06258392 C-48.91523743 0.99954575 -48.91523743 0.99954575 -47.91889191 0.93523407 C-31.96527563 -0.05211023 -15.97768596 -0.00075024 0 0 Z " fill="#7DADDF" transform="translate(397.26685333251953,118.81241607666016)"/>
<path d="M0 0 C2.44452573 3.66678859 2.18475029 5.29034385 2.0546875 9.64453125 C2.03019531 10.96130859 2.00570313 12.27808594 1.98046875 13.63476562 C1.93097013 15.72179419 1.87513706 17.80823366 1.80810547 19.89477539 C1.74728309 21.91556291 1.71202617 23.93561423 1.6796875 25.95703125 C1.64601074 27.16335205 1.61233398 28.36967285 1.57763672 29.61254883 C2.08765415 33.70300657 3.4498238 35.80434718 6 39 C8.16418152 40.60686918 8.16418152 40.60686918 10.625 41.5 C11.40101562 41.8403125 12.17703125 42.180625 12.9765625 42.53125 C17.57189468 43.2437046 21.52461542 42.10100231 26 41 C27.02963867 40.74831055 28.05927734 40.49662109 29.12011719 40.23730469 C31.38859881 39.67502006 33.65597186 39.10824888 35.92236328 38.53759766 C73.46364076 29.12584077 116.65884998 22.50722914 155 31 C154.38722388 33.96175123 153.74627478 35.38058783 152 38 C149.65661621 38.34057617 149.65661621 38.34057617 146.67773438 38.29296875 C145.5605603 38.28305908 144.44338623 38.27314941 143.2923584 38.26293945 C141.46154724 38.22559692 141.46154724 38.22559692 139.59375 38.1875 C137.69284607 38.17046021 137.69284607 38.17046021 135.75354004 38.15307617 C130.99615684 38.11026278 126.23941485 38.04226469 121.48242188 37.96887207 C93.88604203 37.54864833 67.63666772 39.55948348 40.91796875 46.58984375 C39.86367676 46.86401123 38.80938477 47.13817871 37.72314453 47.4206543 C35.68501275 47.95545529 33.65043682 48.50409096 31.62060547 49.06958008 C24.54813912 50.94099491 15.67855909 53.10974166 8.72338867 49.97338867 C4.58277912 47.28185095 1.84652242 43.87328209 0.43678284 39.08831787 C-0.29284095 35.59988776 -0.12087752 32.06401592 -0.09765625 28.515625 C-0.0962413 27.70003113 -0.09482635 26.88443726 -0.09336853 26.04412842 C-0.08778303 23.44604788 -0.07523321 20.84805437 -0.0625 18.25 C-0.05748312 16.48567833 -0.05292054 14.72135531 -0.04882812 12.95703125 C-0.03781835 8.63798744 -0.02056369 4.31900846 0 0 Z " fill="#B0D4F4" transform="translate(22,347)"/>
<path d="M0 0 C1.0533252 0.09921753 1.0533252 0.09921753 2.12792969 0.20043945 C4.0546875 0.4296875 4.0546875 0.4296875 7.125 1.125 C8.115 2.61 8.115 2.61 9.125 4.125 C7.05610385 6.70383534 5.04301985 8.54678894 2.125 10.125 C-0.48876953 9.99243164 -0.48876953 9.99243164 -3.3828125 9.34765625 C-9.61785267 8.12372695 -15.65669201 7.64804175 -22 7.4375 C-23.67727173 7.37997559 -23.67727173 7.37997559 -25.38842773 7.32128906 C-57.52673327 6.41313522 -88.62761865 10.4559644 -119.75 18.3125 C-120.9978125 18.62574219 -122.245625 18.93898438 -123.53125 19.26171875 C-125.60186951 19.79630626 -127.66628098 20.3565149 -129.71875 20.95703125 C-135.41810775 22.46102843 -139.29266612 22.04146167 -144.66796875 19.52734375 C-148.10325909 17.34456635 -150.29778042 14.88606208 -151.875 11.125 C-152.1875 7.6875 -152.1875 7.6875 -151.875 5.125 C-151.215 5.125 -150.555 5.125 -149.875 5.125 C-149.153125 5.888125 -148.43125 6.65125 -147.6875 7.4375 C-144.617584 10.37097529 -142.07127813 12.40257092 -137.875 13.125 C-130.652781 12.5138786 -123.61725201 10.61051237 -116.64477539 8.71337891 C-78.59918307 -1.57222705 -39.17810942 -4.03502483 0 0 Z " fill="#A7CBEF" transform="translate(174.875,368.875)"/>
<path d="M0 0 C2.46406448 3.69609672 2.67864807 6.71027391 2 11 C-0.40970266 15.10541934 -2.56249493 16.54384827 -7 18 C-9.59471701 18.41577953 -12.1413021 18.76011835 -14.75 19.03515625 C-15.48573242 19.11873886 -16.22146484 19.20232147 -16.97949219 19.28843689 C-19.31897436 19.55309577 -21.65936683 19.80824053 -24 20.0625 C-26.34040596 20.32203637 -28.68056591 20.58358767 -31.02050781 20.84727478 C-32.47267054 21.01035884 -33.92513528 21.17078267 -35.37792969 21.32814026 C-38.96522707 21.72539624 -42.46938116 22.25541806 -46 23 C-54.58749587 23.80714522 -54.58749587 23.80714522 -58.625 21.5 C-60.54887898 18.00203822 -60.77261791 14.84779016 -60 11 C-57.93228896 7.72018249 -56.22880989 6.15253993 -53 4 C-50.40307617 3.4375 -50.40307617 3.4375 -47.29296875 3 C-46.15512939 2.8359668 -45.01729004 2.67193359 -43.8449707 2.50292969 C-42.63800537 2.33696289 -41.43104004 2.17099609 -40.1875 2 C-38.96313232 1.82629883 -37.73876465 1.65259766 -36.47729492 1.47363281 C-34.06175985 1.13128616 -31.64583317 0.79168941 -29.22949219 0.45507812 C-26.61076877 0.08606539 -23.99618938 -0.29845746 -21.3828125 -0.703125 C-4.50073788 -3.28900076 -4.50073788 -3.28900076 0 0 Z " fill="#7CADDF" transform="translate(109,255)"/>
<path d="M0 0 C2.33343332 2.4792729 2.91600117 3.50900855 3.375 6.875 C2.86474888 11.29717638 1.14512961 13.04976216 -2 16.125 C-6.07293877 18.17913449 -10.20690031 18.68558374 -14.6875 19.16015625 C-15.42645508 19.24373886 -16.16541016 19.32732147 -16.92675781 19.41343689 C-18.48970392 19.58890844 -20.05303228 19.76100408 -21.61669922 19.92993164 C-23.96537438 20.18375794 -26.3127828 20.4473227 -28.66015625 20.71289062 C-32.40696132 21.13278136 -36.15547493 21.53123021 -39.90643311 21.91220093 C-41.90637501 22.11548356 -43.90560244 22.32575904 -45.90478516 22.53637695 C-47.06284668 22.64554443 -48.2209082 22.75471191 -49.4140625 22.8671875 C-50.41904785 22.96499512 -51.4240332 23.06280273 -52.45947266 23.16357422 C-55 23.125 -55 23.125 -58.375 21.1875 C-60.23397366 17.68404965 -60.49992615 15.87136652 -59.6796875 12.05078125 C-58.42584687 8.49823279 -57.15695378 7.24987274 -54 5.125 C-49.72798008 3.75461704 -45.41203623 2.91446968 -41 2.125 C-40.03707031 1.94195312 -39.07414062 1.75890625 -38.08203125 1.5703125 C-6.5375134 -4.08594587 -6.5375134 -4.08594587 0 0 Z " fill="#7CADDF" transform="translate(343,73.875)"/>
<path d="M0 0 C1.53214888 3.06429776 1.22938548 5.6165642 1 9 C-0.4057913 12.86592608 -1.5468199 13.78765583 -5.29296875 15.54296875 C-11.12338953 17.61615332 -17.18794669 17.9928525 -23.3125 18.5625 C-30.81103259 19.29192924 -38.20071323 20.09559383 -45.59277344 21.57641602 C-50.57100772 22.45240349 -55.09669414 23.11413026 -59.5625 20.5 C-61.594155 16.96668696 -61.82090548 13.90871509 -61 10 C-58.96881657 6.15525994 -57.6895642 4.59053394 -53.59155273 3.15820312 C-45.38878282 1.17067655 -37.18029586 -0.11277559 -28.8125 -1.1875 C-27.51119141 -1.36474609 -26.20988281 -1.54199219 -24.86914062 -1.72460938 C-5.28924648 -4.29751277 -5.28924648 -4.29751277 0 0 Z " fill="#7CADDF" transform="translate(110,120)"/>
<path d="M0 0 C1.9181049 0.59805179 3.83283432 1.20693604 5.74609375 1.8203125 C7.34602173 2.32715576 7.34602173 2.32715576 8.97827148 2.84423828 C14.31402965 4.88507848 17.73394137 7.79900938 20.56636047 12.72305298 C22.08945961 16.20448265 22.36444311 18.41798932 22.34057617 22.18896484 C22.34034958 23.38975677 22.34012299 24.59054871 22.33988953 25.82772827 C22.32440567 27.10918732 22.30892181 28.39064636 22.29296875 29.7109375 C22.28736685 31.04757204 22.28309956 32.38421278 22.28010559 33.72085571 C22.26870334 37.22264904 22.23927697 40.72406342 22.20599365 44.22570801 C22.17519235 47.80536779 22.16157887 51.38508937 22.14648438 54.96484375 C22.11440204 61.97671722 22.06326245 68.98834037 22 76 C20.40268773 72.87071627 19.12567384 69.72161208 17.875 66.4375 C15.10980407 59.77663098 11.33817114 52.04381171 5.27229309 47.78778076 C2.44038649 45.78359188 0.34487407 44.22739615 -0.61688232 40.80453491 C-0.80872954 38.17929712 -0.78806309 35.63799372 -0.68359375 33.0078125 C-0.67368912 32.06187225 -0.66378448 31.11593201 -0.65357971 30.1413269 C-0.61454343 27.134275 -0.52674483 24.1309391 -0.4375 21.125 C-0.40237209 19.08078207 -0.37043567 17.03650664 -0.34179688 14.9921875 C-0.26481676 9.99337042 -0.14411065 4.99731409 0 0 Z " fill="#09A9EF" transform="translate(490,82)"/>
<path d="M0 0 C5.69380088 2.06032367 10.15743739 5.43468287 15 9 C16.010625 9.7425 17.02125 10.485 18.0625 11.25 C24.95920452 17.18665191 30.5555507 25.11468672 35 33 C35 33.66 35 34.32 35 35 C30.00569452 36.3555032 25.00583221 37.68772773 20 39 C19.11441406 39.23460937 18.22882813 39.46921875 17.31640625 39.7109375 C11.21380242 41.21211277 5.10498725 42.21499501 -0.875 39.875 C-4.39825649 36.76624427 -5.86858102 33.71977591 -6.2265625 29.03515625 C-6.13046643 23.64096362 -4.75288894 18.42455549 -3.5625 13.1875 C-3.33240234 12.13884766 -3.10230469 11.09019531 -2.86523438 10.00976562 C-1.15053354 2.30106707 -1.15053354 2.30106707 0 0 Z " fill="#555352" transform="translate(158,435)"/>
<path d="M0 0 C2.81952101 2.11290887 3.75978432 4.26622466 4.83984375 7.56640625 C4.68486181 11.98339147 3.57455534 13.80545764 0.71484375 17.12890625 C-3.04681739 19.78205855 -7.29102101 19.53234586 -11.72265625 19.56640625 C-12.47353516 19.59927734 -13.22441406 19.63214844 -13.99804688 19.66601562 C-18.16936559 19.70637139 -19.83540292 19.46607465 -23.28125 16.8828125 C-25.85101306 13.35126677 -26.01364891 11.51059093 -25.78125 7.28515625 C-24.97973506 3.80140627 -23.08125515 2.20972404 -20.28515625 0.12890625 C-14.37703138 -1.84046871 -5.92525794 -2.25868807 0 0 Z " fill="#7EAEDF" transform="translate(151.28515625,114.87109375)"/>
<path d="M0 0 C0.78955078 -0.01095703 1.57910156 -0.02191406 2.39257812 -0.03320312 C6.3474371 0.01652268 8.48884467 0.2899141 11.93359375 2.3828125 C14.71263931 5.40563398 14.9375 7.49954195 14.9375 11.5625 C13.19867715 15.81295585 11.03033262 17.60935199 6.9375 19.5625 C4.09482442 20.03567634 1.31465422 20.07243836 -1.5625 20.0625 C-2.68205078 20.10503906 -2.68205078 20.10503906 -3.82421875 20.1484375 C-7.97095739 20.16311622 -9.63239801 19.8863415 -13.05078125 17.3125 C-15.0589937 14.56729308 -15.76762358 13.39923105 -15.75 10.0625 C-15.77449219 9.3303125 -15.79898438 8.598125 -15.82421875 7.84375 C-13.32115698 0.34740091 -6.80589962 -0.20657776 0 0 Z " fill="#7CADDF" transform="translate(141.0625,250.4375)"/>
<path d="M0 0 C0.80759766 -0.03738281 1.61519531 -0.07476562 2.44726562 -0.11328125 C6.79960885 -0.17744356 8.63332674 -0.04009503 12.22265625 2.6484375 C14.61730318 5.97142668 14.92633487 7.49316728 14.6875 11.44140625 C13.83913253 14.72220232 11.7756706 16.34143739 9.1875 18.375 C5.81513497 20.06118252 2.07988024 19.72796693 -1.625 19.8125 C-2.43259766 19.85826172 -3.24019531 19.90402344 -4.07226562 19.95117188 C-9.86629005 20.06031402 -9.86629005 20.06031402 -12.49926758 18.15332031 C-14.42329877 16.00079556 -15.689305 14.0343866 -16.22265625 11.1796875 C-15.42376145 6.74537253 -14.56876285 4.22065367 -10.8125 1.375 C-7.44328823 -0.30960589 -3.7015138 0.06407026 0 0 Z " fill="#7CACDF" transform="translate(375.8125,69.625)"/>
<path d="M0 0 C2.49671227 3.7450684 2.2129696 5.47147415 1.58984375 9.77734375 C0.62096462 13.42828564 -0.91698766 14.88042902 -4 17 C-10.15886301 19.34976701 -17.5069225 20.01355356 -24 19 C-26.75 16.9375 -26.75 16.9375 -28 14 C-28.08458972 9.34756529 -27.04884571 5.78550671 -23.8515625 2.2890625 C-17.84491556 -1.8927803 -6.36947248 -4.32214204 0 0 Z " fill="#7DADDF" transform="translate(311,127)"/>
<path d="M0 0 C2.23019736 3.34902547 1.83705147 6.90996041 1.16796875 10.75390625 C-0.88623377 14.5199442 -2.0427607 16.13670142 -6.07421875 17.52734375 C-8.65637086 18.08238579 -11.21099539 18.4345527 -13.83203125 18.75390625 C-14.64800781 18.92148437 -15.46398438 19.0890625 -16.3046875 19.26171875 C-20.52209478 20.03620089 -22.16107232 20.17839047 -25.89453125 17.81640625 C-28.34149431 13.94862594 -28.81627116 11.21458988 -27.83203125 6.75390625 C-25.07069589 2.21742672 -22.38170128 0.39132376 -17.33203125 -0.87109375 C-3.4650712 -2.35683947 -3.4650712 -2.35683947 0 0 Z " fill="#7DADDF" transform="translate(76.83203125,308.24609375)"/>
<path d="M0 0 C2.69965917 3.25547136 2.78865457 5.24280066 2.55078125 9.375 C1.76771798 13.39807735 -0.40875609 15.5512973 -3.6875 17.8125 C-9.66895992 19.86328626 -16.6001128 20.31548646 -22.875 19.5625 C-25.5 18.0625 -25.5 18.0625 -26.875 15.5625 C-27.4776658 10.81650686 -27.61573271 8.73745533 -25.0625 4.6875 C-19.15032194 -1.05575869 -7.57825349 -3.78912675 0 0 Z " fill="#7DADDF" transform="translate(75.875,171.4375)"/>
<path d="M0 0 C1.8683754 3.55881028 2.12448534 6.63375789 1.3125 10.5 C-0.83206051 14.55934667 -2.1632112 15.92785194 -6.4453125 17.53515625 C-11.73637175 18.96069226 -17.22818049 20.39131747 -22.6875 19.5 C-26.30447193 16.96042396 -27.49032447 15.46795258 -28.375 11.125 C-27.4522859 6.2597802 -25.553107 3.56268649 -21.6875 0.5 C-15.2168603 -2.02245277 -6.27681209 -3.50333698 0 0 Z " fill="#7CADDF" transform="translate(76.6875,217.5)"/>
<path d="M0 0 C1.02222656 -0.03738281 2.04445313 -0.07476562 3.09765625 -0.11328125 C6.67360059 0.42286446 7.79283182 1.44790799 9.9375 4.3125 C10.63597329 9.12420489 10.45062091 11.26652275 8.3125 15.625 C4.02570924 20.13352132 -3.16157532 20.7379023 -9.0625 21.3125 C-15.54082946 20.75003013 -15.54082946 20.75003013 -18 18.6875 C-19.49008471 15.35672241 -19.44293186 12.92660271 -19.0625 9.3125 C-17.25870845 5.13529852 -15.14626873 3.25715178 -11.0625 1.3125 C-7.36335353 0.4082642 -3.80345099 0.09135976 0 0 Z " fill="#7CADDF" transform="translate(68.0625,79.6875)"/>
</svg>
