<?xml version="1.0" encoding="UTF-8"?>
<!DOCTYPE svg PUBLIC "-//W3C//DTD SVG 1.1//EN" "http://www.w3.org/Graphics/SVG/1.1/DTD/svg11.dtd">
<svg xmlns="http://www.w3.org/2000/svg" version="1.1" width="1792px" height="1024px" style="shape-rendering:geometricPrecision; text-rendering:geometricPrecision; image-rendering:optimizeQuality; fill-rule:evenodd; clip-rule:evenodd" xmlns:xlink="http://www.w3.org/1999/xlink">
<g><path style="opacity:1" fill="#e7e8db" d="M 704.5,114.5 C 705.833,115.167 705.833,115.167 704.5,114.5 Z"/></g>
<g><path style="opacity:1" fill="#0a131a" d="M 1025.5,293.5 C 1024.21,295.035 1024.21,296.701 1025.5,298.5C 1026.11,298.376 1026.44,298.043 1026.5,297.5C 1035.72,292.808 1045.22,288.808 1055,285.5C 1062.65,286.442 1065.31,290.442 1063,297.5C 1046.89,306.972 1030.06,314.972 1012.5,321.5C 1011.04,321.567 1009.71,321.234 1008.5,320.5C 1009.39,318.218 1009.56,315.885 1009,313.5C 1007.27,312.424 1005.44,312.257 1003.5,313C 986.402,321.216 969.069,328.883 951.5,336C 947.44,337.689 943.773,339.856 940.5,342.5C 939.167,342.5 937.833,342.5 936.5,342.5C 936.614,339.006 937.78,336.006 940,333.5C 940.772,333.645 941.439,333.978 942,334.5C 942.452,330.763 943.618,327.263 945.5,324C 942.621,320.552 939.954,320.719 937.5,324.5C 936.702,324.043 936.369,323.376 936.5,322.5C 962.287,309.775 988.287,297.275 1014.5,285C 1021.53,283.535 1025.2,286.368 1025.5,293.5 Z"/></g>
<g><path style="opacity:1" fill="#a7b1b8" d="M 1025.5,293.5 C 1025.23,295.099 1025.57,296.432 1026.5,297.5C 1026.44,298.043 1026.11,298.376 1025.5,298.5C 1024.21,296.701 1024.21,295.035 1025.5,293.5 Z"/></g>
<g><path style="opacity:1" fill="#030f17" d="M 968.5,272.5 C 968.187,275.247 968.52,277.914 969.5,280.5C 970.107,280.376 970.44,280.043 970.5,279.5C 978.365,276.319 986.199,272.986 994,269.5C 1001.39,271.18 1004.06,275.514 1002,282.5C 997.578,285.964 992.744,288.797 987.5,291C 978.382,294.725 969.382,298.725 960.5,303C 958.866,303.494 957.199,303.66 955.5,303.5C 956.669,299.906 955.336,297.239 951.5,295.5C 927.561,306.137 903.894,317.303 880.5,329C 879.568,334.112 881.901,337.112 887.5,338C 894.718,338.631 901.718,337.631 908.5,335C 917.748,330.541 927.081,326.374 936.5,322.5C 936.369,323.376 936.702,324.043 937.5,324.5C 939.954,320.719 942.621,320.552 945.5,324C 943.618,327.263 942.452,330.763 942,334.5C 941.439,333.978 940.772,333.645 940,333.5C 937.78,336.006 936.614,339.006 936.5,342.5C 937.833,342.5 939.167,342.5 940.5,342.5C 941.453,344.61 943.119,345.777 945.5,346C 951.629,346.823 957.629,346.323 963.5,344.5C 965.167,345.167 966.833,345.833 968.5,346.5C 969.473,347.984 970.807,348.484 972.5,348C 1007.65,331.924 1042.65,315.59 1077.5,299C 1082.82,297.488 1086.15,299.322 1087.5,304.5C 1086.84,375.841 1087.5,446.841 1089.5,517.5C 1090.17,517.833 1090.83,518.167 1091.5,518.5C 1106.02,519.233 1120.69,519.899 1135.5,520.5C 1139.65,523.713 1140.48,527.713 1138,532.5C 1136.75,533.211 1135.58,534.044 1134.5,535C 1112.83,535.333 1091.17,535.667 1069.5,536C 1051.36,543.237 1033.36,550.737 1015.5,558.5C 1012.25,556.793 1009.58,557.46 1007.5,560.5C 1005.58,561.308 1003.58,561.808 1001.5,562C 1000.78,564.122 999.613,564.622 998,563.5C 996.141,564.579 994.641,565.912 993.5,567.5C 980.267,574.968 966.1,579.968 951,582.5C 938.51,582.167 927.677,577.834 918.5,569.5C 907.734,576.068 896.067,578.235 883.5,576C 872.608,573.806 863.441,568.64 856,560.5C 853.457,562.354 850.624,563.521 847.5,564C 834.434,566.131 822.101,564.131 810.5,558C 808.004,556.669 806.004,554.836 804.5,552.5C 807.487,552.578 808.153,551.411 806.5,549C 807.373,543.848 808.207,538.681 809,533.5C 809.333,534.167 809.667,534.833 810,535.5C 810.172,528.654 810.672,521.987 811.5,515.5C 811.099,523.585 811.599,531.585 813,539.5C 814.758,541.765 816.925,543.432 819.5,544.5C 824.277,548.076 829.777,549.743 836,549.5C 839.888,549.406 843.721,548.906 847.5,548C 849.32,547.8 850.653,546.966 851.5,545.5C 852.823,535.992 852.823,526.325 851.5,516.5C 850.893,516.624 850.56,516.957 850.5,517.5C 841.602,520.244 832.935,519.911 824.5,516.5C 827.187,516.664 829.854,516.497 832.5,516C 831.663,514.989 831.33,513.822 831.5,512.5C 832.873,512.657 834.207,512.49 835.5,512C 835.043,511.586 834.709,511.086 834.5,510.5C 835.106,508.291 835.773,506.124 836.5,504C 830.713,503.013 825.047,501.846 819.5,500.5C 819.5,499.5 819.5,498.5 819.5,497.5C 829.569,502.17 839.902,502.67 850.5,499C 851.66,477.24 851.827,455.406 851,433.5C 840.265,436.58 829.765,435.913 819.5,431.5C 816.882,430.055 814.382,428.389 812,426.5C 811.601,426.728 811.435,427.062 811.5,427.5C 810.027,426.928 808.693,426.095 807.5,425C 807.833,424.667 808.167,424.333 808.5,424C 807.987,419.094 806.987,414.261 805.5,409.5C 807.187,402.303 808.02,394.97 808,387.5C 808.255,394.287 809.255,400.954 811,407.5C 811.464,406.906 811.631,406.239 811.5,405.5C 813.158,408.457 815.491,410.79 818.5,412.5C 821.824,415.564 825.824,417.397 830.5,418C 837.234,418.829 843.901,418.496 850.5,417C 851.48,409.921 851.813,402.755 851.5,395.5C 851.668,392.316 850.334,391.816 847.5,394C 842.845,394.499 838.179,394.666 833.5,394.5C 834.091,393.849 834.757,393.182 835.5,392.5C 834.372,391.738 833.205,391.071 832,390.5C 831.333,388.167 831.333,385.833 832,383.5C 836.09,381.851 840.257,381.017 844.5,381C 843.672,380.085 842.672,379.419 841.5,379C 834.589,379.024 827.922,377.858 821.5,375.5C 820.702,375.043 820.369,374.376 820.5,373.5C 830.716,378.341 841.049,378.674 851.5,374.5C 852.496,360.677 852.829,346.677 852.5,332.5C 850.118,332.402 847.618,332.402 845,332.5C 843.731,331.095 843.231,329.429 843.5,327.5C 846.011,327.162 848.345,327.162 850.5,327.5C 850.566,322.767 852.899,320.434 857.5,320.5C 857.473,318.801 856.806,317.467 855.5,316.5C 889.048,299.561 923.048,283.394 957.5,268C 959.833,267.333 962.167,267.333 964.5,268C 966.751,268.748 968.084,270.248 968.5,272.5 Z M 868.5,343.5 C 872.001,348.091 876.667,350.924 882.5,352C 891.184,354.21 899.684,353.71 908,350.5C 908.464,351.094 908.631,351.761 908.5,352.5C 899.319,357.688 889.652,358.688 879.5,355.5C 878.22,354.069 876.553,353.402 874.5,353.5C 874.828,365.012 874.495,376.346 873.5,387.5C 870.781,385.781 868.781,383.447 867.5,380.5C 867.171,367.989 867.505,355.655 868.5,343.5 Z M 926.5,350.5 C 932.871,358.598 941.371,362.598 952,362.5C 956.575,362.209 961.075,361.543 965.5,360.5C 965.5,361.833 965.5,363.167 965.5,364.5C 957.876,365.398 950.209,365.731 942.5,365.5C 939.155,363.449 935.655,362.783 932,363.5C 931.5,374.495 931.333,385.495 931.5,396.5C 928.614,395.404 926.614,393.404 925.5,390.5C 925.171,376.99 925.504,363.656 926.5,350.5 Z M 868.5,401.5 C 875.296,408.827 883.796,412.161 894,411.5C 898.637,411.631 903.137,410.964 907.5,409.5C 908.386,410.325 908.719,411.325 908.5,412.5C 905.474,413.174 902.474,414.007 899.5,415C 894.799,415.375 890.299,415.542 886,415.5C 882.542,413.903 879.042,412.736 875.5,412C 874.522,418.41 874.189,424.91 874.5,431.5C 873.198,436.734 873.198,442.067 874.5,447.5C 873.419,467.93 873.419,487.93 874.5,507.5C 871.833,505.5 869.5,503.167 867.5,500.5C 867.168,467.329 867.502,434.329 868.5,401.5 Z M 926.5,411.5 C 934.493,418.167 943.826,421.501 954.5,421.5C 958.245,421.014 961.912,420.348 965.5,419.5C 965.67,420.822 965.337,421.989 964.5,423C 953.907,425.325 943.574,424.492 933.5,420.5C 932.914,420.709 932.414,421.043 932,421.5C 931.562,451.689 931.395,481.689 931.5,511.5C 929.167,509.833 927.167,507.833 925.5,505.5C 925.168,473.996 925.502,442.662 926.5,411.5 Z M 868.5,521.5 C 870.091,523.633 872.091,525.299 874.5,526.5C 874.302,536.049 874.302,545.716 874.5,555.5C 871.45,553.451 869.117,550.784 867.5,547.5C 867.174,538.651 867.507,529.984 868.5,521.5 Z M 931.5,530.5 C 931.417,538.296 931.584,546.296 932,554.5C 932.813,556.436 933.313,558.436 933.5,560.5C 930.215,559.05 927.715,556.717 926,553.5C 925.333,544.167 925.333,534.833 926,525.5C 927.704,527.373 929.537,529.04 931.5,530.5 Z"/></g>
<g><path style="opacity:1" fill="#717980" d="M 968.5,272.5 C 969.167,274.833 969.833,277.167 970.5,279.5C 970.44,280.043 970.107,280.376 969.5,280.5C 968.52,277.914 968.187,275.247 968.5,272.5 Z"/></g>
<g><path style="opacity:1" fill="#191e21" d="M 853.5,305.5 C 857.677,304.842 859.177,306.508 858,310.5C 854.057,313.894 849.557,315.727 844.5,316C 842.789,314.867 842.289,313.367 843,311.5C 846.612,309.613 850.112,307.613 853.5,305.5 Z"/></g>
<g><path style="opacity:1" fill="#171c20" d="M 936.5,306.5 C 939.541,306.379 941.208,307.879 941.5,311C 940.513,313.321 938.846,314.987 936.5,316C 925.167,321.333 913.833,326.667 902.5,332C 896.5,332.333 895.167,330 898.5,325C 911.381,319.059 924.047,312.892 936.5,306.5 Z"/></g>
<g><path style="opacity:1" fill="#9b9f9f" d="M 1008.5,320.5 C 1009.71,321.234 1011.04,321.567 1012.5,321.5C 1012.08,322.124 1011.42,322.457 1010.5,322.5C 1009.29,322.253 1008.62,321.586 1008.5,320.5 Z"/></g>
<g><path style="opacity:1" fill="#d9dad6" d="M 813.5,326.5 C 812.833,330.167 812.167,333.833 811.5,337.5C 811.334,333.154 811.501,328.821 812,324.5C 812.717,325.044 813.217,325.711 813.5,326.5 Z"/></g>
<g><path style="opacity:1" fill="#161e26" d="M 968.5,346.5 C 966.833,345.833 965.167,345.167 963.5,344.5C 963.918,343.778 964.584,343.278 965.5,343C 962.79,341.54 962.124,339.54 963.5,337C 974.476,330.838 985.809,325.838 997.5,322C 999.576,323.884 999.91,326.051 998.5,328.5C 988.653,333.59 978.653,338.423 968.5,343C 967.829,343.986 967.829,345.153 968.5,346.5 Z"/></g>
<g><path style="opacity:1" fill="#7ac0e1" d="M 851.5,335.5 C 851.5,336.5 851.5,337.5 851.5,338.5C 843.816,338.99 836.149,339.657 828.5,340.5C 826.84,339.828 825.507,338.828 824.5,337.5C 833.728,339.307 842.728,338.641 851.5,335.5 Z"/></g>
<g><path style="opacity:1" fill="#204e68" d="M 850.5,333.5 C 850.842,332.662 851.508,332.328 852.5,332.5C 852.829,346.677 852.496,360.677 851.5,374.5C 851.5,362.5 851.5,350.5 851.5,338.5C 851.5,337.5 851.5,336.5 851.5,335.5C 851.672,334.508 851.338,333.842 850.5,333.5 Z"/></g>
<g><path style="opacity:1" fill="#2fa0e4" d="M 824.5,337.5 C 825.507,338.828 826.84,339.828 828.5,340.5C 836.149,339.657 843.816,338.99 851.5,338.5C 851.5,350.5 851.5,362.5 851.5,374.5C 841.049,378.674 830.716,378.341 820.5,373.5C 819.5,373.167 818.833,372.5 818.5,371.5C 818.375,360.136 818.542,348.469 819,336.5C 820.996,335.659 822.829,335.992 824.5,337.5 Z"/></g>
<g><path style="opacity:1" fill="#92cbe1" d="M 879.5,355.5 C 878.178,355.33 877.011,355.663 876,356.5C 875.5,367.161 875.333,377.828 875.5,388.5C 874.508,388.672 873.842,388.338 873.5,387.5C 874.495,376.346 874.828,365.012 874.5,353.5C 876.553,353.402 878.22,354.069 879.5,355.5 Z"/></g>
<g><path style="opacity:1" fill="#24a0e7" d="M 908.5,352.5 C 908.832,365.517 908.499,378.517 907.5,391.5C 899.692,394.847 891.692,395.347 883.5,393C 880.367,392.14 877.7,390.64 875.5,388.5C 875.333,377.828 875.5,367.161 876,356.5C 877.011,355.663 878.178,355.33 879.5,355.5C 889.652,358.688 899.319,357.688 908.5,352.5 Z"/></g>
<g><path style="opacity:1" fill="#60696e" d="M 868.5,343.5 C 867.505,355.655 867.171,367.989 867.5,380.5C 866.34,367.673 866.173,354.673 867,341.5C 867.717,342.044 868.217,342.711 868.5,343.5 Z"/></g>
<g><path style="opacity:1" fill="#5ba5ca" d="M 965.5,360.5 C 966.833,374.167 966.833,387.833 965.5,401.5C 965.828,389.655 965.495,377.988 964.5,366.5C 957.108,367.619 949.774,367.619 942.5,366.5C 942.5,366.167 942.5,365.833 942.5,365.5C 950.209,365.731 957.876,365.398 965.5,364.5C 965.5,363.167 965.5,361.833 965.5,360.5 Z"/></g>
<g><path style="opacity:1" fill="#46a5e2" d="M 942.5,365.5 C 942.5,365.833 942.5,366.167 942.5,366.5C 939.833,366.5 937.167,366.5 934.5,366.5C 935.49,375.183 936.656,383.85 938,392.5C 939.044,393.623 939.71,394.956 940,396.5C 940.025,394.102 940.859,391.769 942.5,389.5C 943.345,391.762 944.678,392.429 946.5,391.5C 947.429,392.689 947.762,394.022 947.5,395.5C 950.487,396.258 953.487,397.091 956.5,398C 957.904,399.337 959.404,400.503 961,401.5C 961.873,401.265 962.707,400.931 963.5,400.5C 964.499,389.186 964.832,377.853 964.5,366.5C 965.495,377.988 965.828,389.655 965.5,401.5C 954.537,404.731 943.87,403.898 933.5,399C 932.934,398.005 932.267,397.172 931.5,396.5C 931.333,385.495 931.5,374.495 932,363.5C 935.655,362.783 939.155,363.449 942.5,365.5 Z"/></g>
<g><path style="opacity:1" fill="#229ee9" d="M 942.5,366.5 C 949.774,367.619 957.108,367.619 964.5,366.5C 964.832,377.853 964.499,389.186 963.5,400.5C 962.707,400.931 961.873,401.265 961,401.5C 959.404,400.503 957.904,399.337 956.5,398C 953.487,397.091 950.487,396.258 947.5,395.5C 947.762,394.022 947.429,392.689 946.5,391.5C 944.678,392.429 943.345,391.762 942.5,389.5C 940.859,391.769 940.025,394.102 940,396.5C 939.71,394.956 939.044,393.623 938,392.5C 936.656,383.85 935.49,375.183 934.5,366.5C 937.167,366.5 939.833,366.5 942.5,366.5 Z"/></g>
<g><path style="opacity:1" fill="#c0beaa" d="M 926.5,350.5 C 925.504,363.656 925.171,376.99 925.5,390.5C 924.339,376.673 924.173,362.673 925,348.5C 925.717,349.044 926.217,349.711 926.5,350.5 Z"/></g>
<g><path style="opacity:1" fill="#0c1418" d="M 888.5,289.5 C 888.5,288.5 888.5,287.5 888.5,286.5C 886.901,286.232 885.568,286.566 884.5,287.5C 864.829,296.336 845.162,305.169 825.5,314C 824.269,315.183 824.269,316.349 825.5,317.5C 835.599,321.542 845.599,321.209 855.5,316.5C 856.806,317.467 857.473,318.801 857.5,320.5C 852.899,320.434 850.566,322.767 850.5,327.5C 848.345,327.162 846.011,327.162 843.5,327.5C 843.231,329.429 843.731,331.095 845,332.5C 847.618,332.402 850.118,332.402 852.5,332.5C 851.508,332.328 850.842,332.662 850.5,333.5C 841.158,336.24 831.825,336.073 822.5,333C 819.039,331.357 816.039,329.19 813.5,326.5C 813.217,325.711 812.717,325.044 812,324.5C 811.501,328.821 811.334,333.154 811.5,337.5C 812.194,347.147 812.694,356.813 813,366.5C 814.704,368.373 816.537,370.04 818.5,371.5C 818.833,372.5 819.5,373.167 820.5,373.5C 820.369,374.376 820.702,375.043 821.5,375.5C 827.922,377.858 834.589,379.024 841.5,379C 842.672,379.419 843.672,380.085 844.5,381C 840.257,381.017 836.09,381.851 832,383.5C 831.333,385.833 831.333,388.167 832,390.5C 833.205,391.071 834.372,391.738 835.5,392.5C 834.757,393.182 834.091,393.849 833.5,394.5C 825.56,393.633 818.56,390.633 812.5,385.5C 811.503,392.134 811.17,398.8 811.5,405.5C 811.631,406.239 811.464,406.906 811,407.5C 809.255,400.954 808.255,394.287 808,387.5C 808.02,394.97 807.187,402.303 805.5,409.5C 806.987,414.261 807.987,419.094 808.5,424C 808.167,424.333 807.833,424.667 807.5,425C 808.693,426.095 810.027,426.928 811.5,427.5C 811.529,448.012 811.529,468.345 811.5,488.5C 812.459,492.446 814.792,495.113 818.5,496.5C 818.5,497.167 818.833,497.5 819.5,497.5C 819.5,498.5 819.5,499.5 819.5,500.5C 825.047,501.846 830.713,503.013 836.5,504C 835.773,506.124 835.106,508.291 834.5,510.5C 834.709,511.086 835.043,511.586 835.5,512C 834.207,512.49 832.873,512.657 831.5,512.5C 831.33,513.822 831.663,514.989 832.5,516C 829.854,516.497 827.187,516.664 824.5,516.5C 822.315,516.296 820.315,515.63 818.5,514.5C 815.925,513.432 813.758,511.765 812,509.5C 811.505,511.473 811.338,513.473 811.5,515.5C 810.672,521.987 810.172,528.654 810,535.5C 809.667,534.833 809.333,534.167 809,533.5C 808.207,538.681 807.373,543.848 806.5,549C 808.153,551.411 807.487,552.578 804.5,552.5C 799.442,548.048 796.776,542.381 796.5,535.5C 775.497,535.667 754.497,535.5 733.5,535C 728.845,532.103 727.345,527.937 729,522.5C 730.319,520.513 732.152,519.346 734.5,519C 755.497,518.5 776.497,518.333 797.5,518.5C 796.348,454.522 796.181,390.522 797,326.5C 797.631,318.738 800.798,312.238 806.5,307C 811.301,302.875 816.635,299.542 822.5,297C 844.948,287.943 867.281,278.609 889.5,269C 895.299,268.201 900.966,266.867 906.5,265C 915.417,260.806 924.417,256.806 933.5,253C 944.634,253.052 947.634,258.052 942.5,268C 925.048,275.559 907.715,283.392 890.5,291.5C 889.478,291.145 888.811,290.478 888.5,289.5 Z"/></g>
<g><path style="opacity:1" fill="#b0b7bd" d="M 884.5,287.5 C 885.568,286.566 886.901,286.232 888.5,286.5C 888.5,287.5 888.5,288.5 888.5,289.5C 887.533,288.194 886.199,287.527 884.5,287.5 Z"/></g>
<g><path style="opacity:1" fill="#737a78" d="M 868.5,401.5 C 867.502,434.329 867.168,467.329 867.5,500.5C 866.17,467.331 866.17,433.998 867.5,400.5C 868.107,400.624 868.44,400.957 868.5,401.5 Z"/></g>
<g><path style="opacity:1" fill="#60aed9" d="M 908.5,412.5 C 908.5,412.833 908.5,413.167 908.5,413.5C 908.119,414.931 907.119,415.764 905.5,416C 896.814,416.832 888.147,416.665 879.5,415.5C 878.372,414.738 877.205,414.071 876,413.5C 875.501,419.491 875.334,425.491 875.5,431.5C 875.167,431.5 874.833,431.5 874.5,431.5C 874.189,424.91 874.522,418.41 875.5,412C 879.042,412.736 882.542,413.903 886,415.5C 890.299,415.542 894.799,415.375 899.5,415C 902.474,414.007 905.474,413.174 908.5,412.5 Z"/></g>
<g><path style="opacity:1" fill="#57aad5" d="M 835.5,399.5 C 834.551,400.152 833.385,400.486 832,400.5C 828.306,399.134 824.472,398.468 820.5,398.5C 820.173,403.214 820.507,407.88 821.5,412.5C 826.534,415.978 832.201,417.311 838.5,416.5C 842.416,416.483 846.25,416.15 850,415.5C 850.499,409.843 850.666,404.176 850.5,398.5C 845.859,399.127 841.193,399.46 836.5,399.5C 841.406,398.179 846.406,396.846 851.5,395.5C 851.813,402.755 851.48,409.921 850.5,417C 843.901,418.496 837.234,418.829 830.5,418C 825.824,417.397 821.824,415.564 818.5,412.5C 818.193,406.907 818.527,401.407 819.5,396C 824.935,396.849 830.268,398.015 835.5,399.5 Z"/></g>
<g><path style="opacity:1" fill="#1ca4e9" d="M 835.5,399.5 C 835.833,399.5 836.167,399.5 836.5,399.5C 841.193,399.46 845.859,399.127 850.5,398.5C 850.666,404.176 850.499,409.843 850,415.5C 846.25,416.15 842.416,416.483 838.5,416.5C 832.201,417.311 826.534,415.978 821.5,412.5C 820.507,407.88 820.173,403.214 820.5,398.5C 824.472,398.468 828.306,399.134 832,400.5C 833.385,400.486 834.551,400.152 835.5,399.5 Z"/></g>
<g><path style="opacity:1" fill="#209de0" d="M 908.5,413.5 C 909.653,419.319 909.819,425.319 909,431.5C 904.388,434.756 899.221,436.089 893.5,435.5C 890.833,435.333 888.167,435.167 885.5,435C 882.242,433.533 878.908,432.367 875.5,431.5C 875.334,425.491 875.501,419.491 876,413.5C 877.205,414.071 878.372,414.738 879.5,415.5C 888.147,416.665 896.814,416.832 905.5,416C 907.119,415.764 908.119,414.931 908.5,413.5 Z"/></g>
<g><path style="opacity:1" fill="#11171a" d="M 745.5,423.5 C 754.839,423.334 764.173,423.5 773.5,424C 779.287,429.827 778.62,434.827 771.5,439C 763.5,439.667 755.5,439.667 747.5,439C 740.601,434.585 739.934,429.418 745.5,423.5 Z"/></g>
<g><path style="opacity:1" fill="#10161a" d="M 1115.5,423.5 C 1124.84,423.334 1134.17,423.5 1143.5,424C 1149.84,428.084 1150.17,432.75 1144.5,438C 1135.91,439.576 1127.24,439.91 1118.5,439C 1111.76,434.927 1110.76,429.761 1115.5,423.5 Z"/></g>
<g><path style="opacity:1" fill="#2aa2e9" d="M 819.5,431.5 C 829.765,435.913 840.265,436.58 851,433.5C 851.827,455.406 851.66,477.24 850.5,499C 839.902,502.67 829.569,502.17 819.5,497.5C 818.833,497.5 818.5,497.167 818.5,496.5C 818.321,474.969 818.654,453.302 819.5,431.5 Z"/></g>
<g><path style="opacity:1" fill="#b5b7b0" d="M 926.5,411.5 C 925.502,442.662 925.168,473.996 925.5,505.5C 924.17,473.997 924.17,442.331 925.5,410.5C 926.107,410.624 926.44,410.957 926.5,411.5 Z"/></g>
<g><path style="opacity:1" fill="#1e9fec" d="M 899.5,452.5 C 901.861,452.326 904.194,451.993 906.5,451.5C 908.47,459.769 909.136,468.435 908.5,477.5C 907.521,480.625 907.187,483.958 907.5,487.5C 904.413,487.253 901.58,486.253 899,484.5C 897.434,485.061 896.101,484.394 895,482.5C 894.333,483.833 893.667,483.833 893,482.5C 892.549,484.929 891.715,485.096 890.5,483C 890.833,482.667 891.167,482.333 891.5,482C 890.572,481.612 889.905,480.945 889.5,480C 890.62,478.444 891.62,476.944 892.5,475.5C 891.194,474.088 890.36,472.421 890,470.5C 888.417,470.493 886.751,470.826 885,471.5C 884.167,470.667 883.333,469.833 882.5,469C 884.184,466.071 883.684,463.238 881,460.5C 880.667,460.833 880.333,461.167 880,461.5C 879.598,460.128 879.098,458.795 878.5,457.5C 880.441,455.684 881.108,453.684 880.5,451.5C 884.276,453.327 888.276,454.327 892.5,454.5C 895.269,454.471 897.603,453.805 899.5,452.5 Z"/></g>
<g><path style="opacity:1" fill="#0c141b" d="M 721.5,468.5 C 739.503,468.333 757.503,468.5 775.5,469C 781.726,472.067 782.893,476.567 779,482.5C 778.097,483.701 776.931,484.535 775.5,485C 757.5,485.667 739.5,485.667 721.5,485C 715.456,482.068 713.956,477.568 717,471.5C 718.409,470.219 719.909,469.219 721.5,468.5 Z"/></g>
<g><path style="opacity:1" fill="#071218" d="M 1157.5,472.5 C 1157.7,474.989 1157.2,477.323 1156,479.5C 1154.41,478.273 1153.08,478.606 1152,480.5C 1151.32,481.784 1151.48,482.951 1152.5,484C 1137.5,484.5 1122.5,484.667 1107.5,484.5C 1104,483.351 1102.33,480.851 1102.5,477C 1102.4,473.196 1104.07,470.529 1107.5,469C 1122.83,468.333 1138.17,468.333 1153.5,469C 1155.32,469.66 1156.66,470.827 1157.5,472.5 Z"/></g>
<g><path style="opacity:1" fill="#3385b2" d="M 963.5,460.5 C 964.209,459.596 965.209,459.263 966.5,459.5C 966.83,478.341 966.497,497.007 965.5,515.5C 966.154,496.803 965.487,478.47 963.5,460.5 Z"/></g>
<g><path style="opacity:1" fill="#485451" d="M 1087.5,304.5 C 1088.17,375.402 1088.84,446.402 1089.5,517.5C 1087.5,446.841 1086.84,375.841 1087.5,304.5 Z"/></g>
<g><path style="opacity:1" fill="#01477d" d="M 906.5,451.5 C 907.209,450.596 908.209,450.263 909.5,450.5C 909.83,470.674 909.497,490.674 908.5,510.5C 908.5,499.5 908.5,488.5 908.5,477.5C 909.136,468.435 908.47,459.769 906.5,451.5 Z"/></g>
<g><path style="opacity:1" fill="#2a3439" d="M 1157.5,472.5 C 1158.63,474.966 1158.8,477.633 1158,480.5C 1157.17,482.667 1155.67,484.167 1153.5,485C 1137.99,485.828 1122.66,485.661 1107.5,484.5C 1122.5,484.667 1137.5,484.5 1152.5,484C 1151.48,482.951 1151.32,481.784 1152,480.5C 1153.08,478.606 1154.41,478.273 1156,479.5C 1157.2,477.323 1157.7,474.989 1157.5,472.5 Z"/></g>
<g><path style="opacity:1" fill="#21a3ea" d="M 880.5,450.5 C 886.717,452.102 893.051,452.768 899.5,452.5C 897.603,453.805 895.269,454.471 892.5,454.5C 888.276,454.327 884.276,453.327 880.5,451.5C 881.108,453.684 880.441,455.684 878.5,457.5C 879.098,458.795 879.598,460.128 880,461.5C 880.333,461.167 880.667,460.833 881,460.5C 883.684,463.238 884.184,466.071 882.5,469C 883.333,469.833 884.167,470.667 885,471.5C 886.751,470.826 888.417,470.493 890,470.5C 890.36,472.421 891.194,474.088 892.5,475.5C 891.62,476.944 890.62,478.444 889.5,480C 889.905,480.945 890.572,481.612 891.5,482C 891.167,482.333 890.833,482.667 890.5,483C 891.715,485.096 892.549,484.929 893,482.5C 893.667,483.833 894.333,483.833 895,482.5C 896.101,484.394 897.434,485.061 899,484.5C 901.58,486.253 904.413,487.253 907.5,487.5C 907.187,483.958 907.521,480.625 908.5,477.5C 908.5,488.5 908.5,499.5 908.5,510.5C 905.697,511.928 902.697,512.595 899.5,512.5C 895.486,512.666 891.486,512.499 887.5,512C 883.866,510.644 880.199,509.477 876.5,508.5C 876.5,489.167 876.5,469.833 876.5,450.5C 877.833,450.5 879.167,450.5 880.5,450.5 Z"/></g>
<g><path style="opacity:1" fill="#1f9ee7" d="M 943.5,460.5 C 950.154,461.791 956.82,461.791 963.5,460.5C 965.487,478.47 966.154,496.803 965.5,515.5C 956.483,519.497 947.483,519.497 938.5,515.5C 937.952,513.468 936.619,512.468 934.5,512.5C 934.167,493.821 934.5,475.155 935.5,456.5C 936.833,457.167 937.833,458.167 938.5,459.5C 940.045,460.452 941.712,460.785 943.5,460.5 Z"/></g>
<g><path style="opacity:1" fill="#50a0d2" d="M 965.5,419.5 C 966.82,427.01 966.82,434.677 965.5,442.5C 964.264,443.246 962.93,443.579 961.5,443.5C 964.369,437.557 965.202,431.224 964,424.5C 963.25,425.126 962.416,425.626 961.5,426C 951.926,427.464 942.76,426.297 934,422.5C 933.036,430.665 933.37,438.665 935,446.5C 936.802,443.608 939.469,442.275 943,442.5C 948.815,443.193 954.648,443.526 960.5,443.5C 959.054,444.94 957.221,445.607 955,445.5C 949.858,444.391 944.692,443.891 939.5,444C 936.208,446.412 935.041,449.579 936,453.5C 937.742,456.746 940.242,459.079 943.5,460.5C 941.712,460.785 940.045,460.452 938.5,459.5C 937.833,458.167 936.833,457.167 935.5,456.5C 934.5,475.155 934.167,493.821 934.5,512.5C 936.619,512.468 937.952,513.468 938.5,515.5C 935.996,514.416 933.663,513.083 931.5,511.5C 931.395,481.689 931.562,451.689 932,421.5C 932.414,421.043 932.914,420.709 933.5,420.5C 943.574,424.492 953.907,425.325 964.5,423C 965.337,421.989 965.67,420.822 965.5,419.5 Z"/></g>
<g><path style="opacity:1" fill="#2697e7" d="M 961.5,443.5 C 961.167,443.5 960.833,443.5 960.5,443.5C 954.648,443.526 948.815,443.193 943,442.5C 939.469,442.275 936.802,443.608 935,446.5C 933.37,438.665 933.036,430.665 934,422.5C 942.76,426.297 951.926,427.464 961.5,426C 962.416,425.626 963.25,425.126 964,424.5C 965.202,431.224 964.369,437.557 961.5,443.5 Z"/></g>
<g><path style="opacity:1" fill="#61afda" d="M 874.5,447.5 C 876.819,447.992 878.819,448.992 880.5,450.5C 879.167,450.5 877.833,450.5 876.5,450.5C 876.5,469.833 876.5,489.167 876.5,508.5C 880.199,509.477 883.866,510.644 887.5,512C 891.486,512.499 895.486,512.666 899.5,512.5C 892.841,513.975 886.174,513.475 879.5,511C 877.416,510.303 875.749,509.136 874.5,507.5C 873.419,487.93 873.419,467.93 874.5,447.5 Z"/></g>
<g><path style="opacity:1" fill="#565a5a" d="M 1091.5,518.5 C 1105.5,518.333 1119.5,518.5 1133.5,519C 1134.42,519.278 1135.08,519.778 1135.5,520.5C 1120.69,519.899 1106.02,519.233 1091.5,518.5 Z"/></g>
<g><path style="opacity:1" fill="#2ea2e8" d="M 818.5,514.5 C 820.315,515.63 822.315,516.296 824.5,516.5C 832.935,519.911 841.602,520.244 850.5,517.5C 851.494,526.652 851.827,535.985 851.5,545.5C 850.653,546.966 849.32,547.8 847.5,548C 843.721,548.906 839.888,549.406 836,549.5C 829.777,549.743 824.277,548.076 819.5,544.5C 818.519,534.343 818.185,524.343 818.5,514.5 Z"/></g>
<g><path style="opacity:1" fill="#19587a" d="M 850.5,517.5 C 850.56,516.957 850.893,516.624 851.5,516.5C 852.823,526.325 852.823,535.992 851.5,545.5C 851.827,535.985 851.494,526.652 850.5,517.5 Z"/></g>
<g><path style="opacity:1" fill="#878e8c" d="M 868.5,521.5 C 867.507,529.984 867.174,538.651 867.5,547.5C 866.178,538.658 866.178,529.658 867.5,520.5C 868.107,520.624 868.44,520.957 868.5,521.5 Z"/></g>
<g><path style="opacity:1" fill="#6cabcf" d="M 874.5,526.5 C 876.819,526.992 878.819,527.992 880.5,529.5C 878.856,529.286 877.356,529.62 876,530.5C 875.5,539.16 875.334,547.827 875.5,556.5C 874.833,556.5 874.5,556.167 874.5,555.5C 874.302,545.716 874.302,536.049 874.5,526.5 Z"/></g>
<g><path style="opacity:1" fill="#2b9fe7" d="M 875.5,556.5 C 875.334,547.827 875.5,539.16 876,530.5C 877.356,529.62 878.856,529.286 880.5,529.5C 889.78,532.255 898.946,531.922 908,528.5C 908.832,538.517 908.666,548.517 907.5,558.5C 906.3,559.531 904.966,560.365 903.5,561C 897.167,561.667 890.833,561.667 884.5,561C 881.16,559.997 878.16,558.497 875.5,556.5 Z"/></g>
<g><path style="opacity:1" fill="#39a1e5" d="M 931.5,530.5 C 942.038,536.092 953.038,537.425 964.5,534.5C 965.494,543.986 965.827,553.652 965.5,563.5C 958.821,566.382 951.821,567.216 944.5,566C 940.224,565.195 936.557,563.362 933.5,560.5C 933.313,558.436 932.813,556.436 932,554.5C 931.584,546.296 931.417,538.296 931.5,530.5 Z"/></g>
<g><path style="opacity:1" fill="#1f5f87" d="M 964.5,534.5 C 964.56,533.957 964.893,533.624 965.5,533.5C 966.823,543.659 966.823,553.659 965.5,563.5C 965.827,553.652 965.494,543.986 964.5,534.5 Z"/></g>
<g><path style="opacity:1" fill="#219eed" d="M 960.5,536.5 C 961.833,536.5 963.167,536.5 964.5,536.5C 964.5,545.167 964.5,553.833 964.5,562.5C 957.995,564.41 951.328,564.91 944.5,564C 942.587,562.209 940.92,560.209 939.5,558C 940.448,557.517 941.448,557.351 942.5,557.5C 942.351,558.552 942.517,559.552 943,560.5C 944.621,557.699 944.455,555.199 942.5,553C 944.301,552.683 944.634,552.016 943.5,551C 944.025,550.308 944.692,549.808 945.5,549.5C 947.106,549.481 948.772,549.647 950.5,550C 951.337,548.989 951.67,547.822 951.5,546.5C 952.675,546.719 953.675,546.386 954.5,545.5C 955.33,543.865 955.497,542.198 955,540.5C 958.501,541.862 960.334,540.529 960.5,536.5 Z"/></g>
<g><path style="opacity:1" fill="#30383b" d="M 1015.5,558.5 C 1008.55,562.265 1001.22,565.265 993.5,567.5C 994.641,565.912 996.141,564.579 998,563.5C 999.613,564.622 1000.78,564.122 1001.5,562C 1003.58,561.808 1005.58,561.308 1007.5,560.5C 1009.58,557.46 1012.25,556.793 1015.5,558.5 Z"/></g>
<g><path style="opacity:1" fill="#07131a" d="M 729.5,624.5 C 726.551,626.496 726.884,627.829 730.5,628.5C 731.708,632.122 732.708,635.789 733.5,639.5C 731.5,639.5 729.5,639.5 727.5,639.5C 727.5,646.167 727.5,652.833 727.5,659.5C 725.167,659.5 722.833,659.5 720.5,659.5C 719.892,663.472 719.392,667.472 719,671.5C 718.667,671.167 718.333,670.833 718,670.5C 717,646.5 716,646.5 715,670.5C 712.417,675.585 708.584,679.585 703.5,682.5C 703.102,685.024 702.768,687.524 702.5,690C 697.075,688.883 691.908,689.716 687,692.5C 685.624,692.316 684.791,691.649 684.5,690.5C 705.715,683.772 714.215,669.438 710,647.5C 701.791,628.144 687.291,620.477 666.5,624.5C 663.436,624.928 660.436,625.594 657.5,626.5C 657.5,627.5 657.5,628.5 657.5,629.5C 646.325,639.297 641.992,651.631 644.5,666.5C 643.593,674.792 643.26,683.125 643.5,691.5C 647.5,691.5 651.5,691.5 655.5,691.5C 655.5,694.167 655.5,696.833 655.5,699.5C 658.167,699.5 660.833,699.5 663.5,699.5C 664.055,703.997 663.389,708.164 661.5,712C 662.672,712.419 663.672,713.085 664.5,714C 674.666,714.332 684.999,714.332 695.5,714C 694.748,714.671 694.414,715.504 694.5,716.5C 659.124,723.229 633.958,710.229 619,677.5C 611.165,648.98 618.665,625.48 641.5,607C 672.679,588.978 700.846,592.812 726,618.5C 727.421,620.405 728.588,622.405 729.5,624.5 Z M 684.5,690.5 C 664.95,692.73 651.617,684.73 644.5,666.5C 641.992,651.631 646.325,639.297 657.5,629.5C 660.696,628.071 663.696,626.405 666.5,624.5C 687.291,620.477 701.791,628.144 710,647.5C 714.215,669.438 705.715,683.772 684.5,690.5 Z"/></g>
<g><path style="opacity:1" fill="#020e17" d="M 1038.5,624.5 C 1028.17,624.5 1017.83,624.5 1007.5,624.5C 1007.5,653.167 1007.5,681.833 1007.5,710.5C 1005.01,715.924 1000.67,718.59 994.5,718.5C 988.357,718.779 984.357,716.112 982.5,710.5C 982.5,681.833 982.5,653.167 982.5,624.5C 972.167,624.5 961.833,624.5 951.5,624.5C 948.012,623.857 945.512,621.857 944,618.5C 943.333,614.167 943.333,609.833 944,605.5C 944.785,603.714 945.951,602.214 947.5,601C 963.078,599.848 978.744,599.348 994.5,599.5C 1010.26,599.348 1025.92,599.848 1041.5,601C 1047.15,607.128 1047.98,613.962 1044,621.5C 1042.51,623.16 1040.68,624.16 1038.5,624.5 Z"/></g>
<g><path style="opacity:1" fill="#031018" d="M 1133.5,624.5 C 1115.83,624.5 1098.17,624.5 1080.5,624.5C 1080.18,632.019 1080.51,639.352 1081.5,646.5C 1093.5,646.333 1105.5,646.5 1117.5,647C 1123.28,650.056 1125.78,654.89 1125,661.5C 1123.9,666.765 1120.74,669.765 1115.5,670.5C 1103.83,670.5 1092.17,670.5 1080.5,670.5C 1080.18,677.687 1080.51,684.687 1081.5,691.5C 1099.84,691.333 1118.17,691.5 1136.5,692C 1142.67,695.845 1144.83,701.345 1143,708.5C 1141.8,713.702 1138.63,716.869 1133.5,718C 1109.19,717.738 1084.86,717.404 1060.5,717C 1058.71,716.215 1057.21,715.049 1056,713.5C 1054.85,695.254 1054.35,676.921 1054.5,658.5C 1054.35,640.079 1054.85,621.746 1056,603.5C 1057.21,601.951 1058.71,600.785 1060.5,600C 1085.5,599.333 1110.5,599.333 1135.5,600C 1137.29,600.785 1138.79,601.951 1140,603.5C 1144.33,611.002 1143.16,617.835 1136.5,624C 1135.55,624.483 1134.55,624.649 1133.5,624.5 Z"/></g>
<g><path style="opacity:1" fill="#071319" d="M 790.5,683.5 C 786.03,682.514 781.363,682.181 776.5,682.5C 776.5,691.167 776.5,699.833 776.5,708.5C 775.138,715.379 770.805,718.712 763.5,718.5C 756.876,718.609 752.376,715.609 750,709.5C 749.014,673.748 749.347,638.082 751,602.5C 751.833,601.667 752.667,600.833 753.5,600C 771.5,599.333 789.5,599.333 807.5,600C 832.952,608.388 843.452,625.888 839,652.5C 836.281,663.545 830.114,672.045 820.5,678C 826.539,686.571 832.705,695.071 839,703.5C 842.846,710.948 840.68,715.781 832.5,718C 826.311,718.892 820.311,718.226 814.5,716C 806.251,705.265 798.251,694.432 790.5,683.5 Z M 776.5,624.5 C 785.663,623.907 794.663,624.74 803.5,627C 812.863,633.087 815.363,641.254 811,651.5C 809.833,654 808,655.833 805.5,657C 795.914,658.42 786.247,658.92 776.5,658.5C 776.5,647.167 776.5,635.833 776.5,624.5 Z"/></g>
<g><path style="opacity:1" fill="#041117" d="M 910.5,600.5 C 924.382,603.382 933.049,611.715 936.5,625.5C 935.202,632.15 933.869,640.15 932.5,649.5C 930.248,653.424 926.915,655.757 922.5,656.5C 921.957,656.56 921.624,656.893 921.5,657.5C 922.689,658.429 924.022,658.762 925.5,658.5C 930.316,659.072 933.983,661.405 936.5,665.5C 936.785,667.288 936.452,668.955 935.5,670.5C 932.916,671.393 930.249,671.726 927.5,671.5C 927.666,676.511 927.499,681.511 927,686.5C 923.572,687.396 920.072,688.062 916.5,688.5C 916.286,690.144 916.62,691.644 917.5,693C 916.167,696.333 914.833,696.333 913.5,693C 914.406,691.301 914.739,689.467 914.5,687.5C 917.487,679.676 915.153,674.176 907.5,671C 897.839,670.5 888.172,670.334 878.5,670.5C 878.5,677.5 878.5,684.5 878.5,691.5C 888.325,692.33 898.325,692.83 908.5,693C 903.798,693.172 899.132,693.672 894.5,694.5C 897.373,694.876 900.373,694.876 903.5,694.5C 903.5,697.5 903.5,700.5 903.5,703.5C 904.833,703.5 906.167,703.5 907.5,703.5C 907.5,704.833 907.5,706.167 907.5,707.5C 908.833,707.5 910.167,707.5 911.5,707.5C 911.703,709.39 911.037,710.89 909.5,712C 914.833,712.667 914.833,713.333 909.5,714C 912.202,714.607 914.868,714.44 917.5,713.5C 920.029,713.65 920.695,714.65 919.5,716.5C 898.877,717.643 878.21,717.81 857.5,717C 854.921,715.924 853.254,714.091 852.5,711.5C 852.167,676.16 852.5,640.827 853.5,605.5C 854.799,604.91 855.632,603.91 856,602.5C 856.414,602.957 856.914,603.291 857.5,603.5C 859.444,602.811 861.444,602.311 863.5,602C 863.167,601.667 862.833,601.333 862.5,601C 878.497,600.5 894.497,600.333 910.5,600.5 Z M 879.5,624.5 C 887.903,624.13 896.236,624.63 904.5,626C 912.615,630.655 914.782,637.155 911,645.5C 909.786,647.049 908.286,648.215 906.5,649C 897.173,649.5 887.839,649.666 878.5,649.5C 878.31,640.868 878.643,632.534 879.5,624.5 Z M 914.5,687.5 C 913.684,689.144 912.35,690.31 910.5,691C 899.839,691.5 889.172,691.667 878.5,691.5C 878.5,684.5 878.5,677.5 878.5,670.5C 888.172,670.334 897.839,670.5 907.5,671C 915.153,674.176 917.487,679.676 914.5,687.5 Z"/></g>
<g><path style="opacity:1" fill="#081319" d="M 1224.5,676.5 C 1222.44,676.957 1222.44,677.957 1224.5,679.5C 1231.17,688.342 1237.67,697.342 1244,706.5C 1245.41,713.427 1242.58,717.26 1235.5,718C 1229.63,718.951 1223.96,718.285 1218.5,716C 1210.23,705.565 1202.56,694.732 1195.5,683.5C 1190.69,682.513 1185.69,682.179 1180.5,682.5C 1180.5,691.5 1180.5,700.5 1180.5,709.5C 1178.93,716.141 1174.6,719.141 1167.5,718.5C 1161.01,719.012 1156.51,716.345 1154,710.5C 1153.33,675.167 1153.33,639.833 1154,604.5C 1154.47,603.069 1155.3,601.903 1156.5,601C 1174.43,599.374 1192.43,599.041 1210.5,600C 1236.67,607.824 1247.51,625.324 1243,652.5C 1240.41,663.394 1234.24,671.394 1224.5,676.5 Z M 1181.5,624.5 C 1189.09,625.301 1196.75,625.801 1204.5,626C 1215.54,630.767 1219.04,638.934 1215,650.5C 1213.5,653.333 1211.33,655.5 1208.5,657C 1199.25,658.417 1189.91,658.917 1180.5,658.5C 1181.43,647.205 1181.77,635.871 1181.5,624.5 Z"/></g>
<g><path style="opacity:1" fill="#494e4b" d="M 1248.5,605.5 C 1255.16,604.997 1257.66,607.997 1256,614.5C 1252.94,618.457 1249.94,618.457 1247,614.5C 1246.07,611.177 1246.57,608.177 1248.5,605.5 Z"/></g>
<g><path style="opacity:1" fill="#aaafb1" d="M 1250.5,609.5 C 1252.05,609.821 1252.71,610.821 1252.5,612.5C 1249.75,612.598 1249.09,611.598 1250.5,609.5 Z"/></g>
<g><path style="opacity:1" fill="#a9b0ad" d="M 1253.5,609.5 C 1256.3,612.261 1255.64,614.261 1251.5,615.5C 1250.29,615.253 1249.62,614.586 1249.5,613.5C 1250.83,613.5 1252.17,613.5 1253.5,613.5C 1253.5,612.167 1253.5,610.833 1253.5,609.5 Z"/></g>
<g><path style="opacity:1" fill="#424a4e" d="M 666.5,624.5 C 663.696,626.405 660.696,628.071 657.5,629.5C 657.5,628.5 657.5,627.5 657.5,626.5C 660.436,625.594 663.436,624.928 666.5,624.5 Z"/></g>
<g><path style="opacity:1" fill="#9c9d9b" d="M 1133.5,624.5 C 1116.34,625.497 1099.01,625.83 1081.5,625.5C 1081.5,632.5 1081.5,639.5 1081.5,646.5C 1080.51,639.352 1080.18,632.019 1080.5,624.5C 1098.17,624.5 1115.83,624.5 1133.5,624.5 Z"/></g>
<g><path style="opacity:1" fill="#283235" d="M 936.5,625.5 C 938.727,634.079 937.393,642.079 932.5,649.5C 933.869,640.15 935.202,632.15 936.5,625.5 Z"/></g>
<g><path style="opacity:1" fill="#07141d" d="M 729.5,624.5 C 738.322,637.428 741.489,651.762 739,667.5C 733.776,692.557 718.943,708.891 694.5,716.5C 694.414,715.504 694.748,714.671 695.5,714C 684.999,714.332 674.666,714.332 664.5,714C 663.672,713.085 662.672,712.419 661.5,712C 663.389,708.164 664.055,703.997 663.5,699.5C 660.833,699.5 658.167,699.5 655.5,699.5C 655.5,696.833 655.5,694.167 655.5,691.5C 651.5,691.5 647.5,691.5 643.5,691.5C 643.26,683.125 643.593,674.792 644.5,666.5C 651.617,684.73 664.95,692.73 684.5,690.5C 684.791,691.649 685.624,692.316 687,692.5C 691.908,689.716 697.075,688.883 702.5,690C 702.768,687.524 703.102,685.024 703.5,682.5C 708.584,679.585 712.417,675.585 715,670.5C 716,646.5 717,646.5 718,670.5C 718.333,670.833 718.667,671.167 719,671.5C 719.392,667.472 719.892,663.472 720.5,659.5C 722.833,659.5 725.167,659.5 727.5,659.5C 727.5,652.833 727.5,646.167 727.5,639.5C 729.5,639.5 731.5,639.5 733.5,639.5C 732.708,635.789 731.708,632.122 730.5,628.5C 726.884,627.829 726.551,626.496 729.5,624.5 Z"/></g>
<g><path style="opacity:1" fill="#182123" d="M 910.5,600.5 C 894.497,600.333 878.497,600.5 862.5,601C 862.833,601.333 863.167,601.667 863.5,602C 861.444,602.311 859.444,602.811 857.5,603.5C 856.914,603.291 856.414,602.957 856,602.5C 855.632,603.91 854.799,604.91 853.5,605.5C 852.5,640.827 852.167,676.16 852.5,711.5C 851.833,693.836 851.5,676.003 851.5,658C 851.345,639.412 851.845,620.912 853,602.5C 853.903,601.299 855.069,600.465 856.5,600C 874.671,599.171 892.671,599.338 910.5,600.5 Z"/></g>
<g><path style="opacity:1" fill="#7a888d" d="M 922.5,656.5 C 923.5,657.167 924.5,657.833 925.5,658.5C 924.022,658.762 922.689,658.429 921.5,657.5C 921.624,656.893 921.957,656.56 922.5,656.5 Z"/></g>
<g><path style="opacity:1" fill="#435050" d="M 951.5,624.5 C 961.833,624.5 972.167,624.5 982.5,624.5C 982.5,653.167 982.5,681.833 982.5,710.5C 981.502,682.338 981.169,654.005 981.5,625.5C 971.319,625.827 961.319,625.494 951.5,624.5 Z"/></g>
<g><path style="opacity:1" fill="#0d1821" d="M 936.5,665.5 C 941.681,670.649 944.015,676.982 943.5,684.5C 943.377,690.997 941.711,696.997 938.5,702.5C 937.5,702.833 936.833,703.5 936.5,704.5C 932.112,710.204 926.445,714.204 919.5,716.5C 920.695,714.65 920.029,713.65 917.5,713.5C 914.868,714.44 912.202,714.607 909.5,714C 914.833,713.333 914.833,712.667 909.5,712C 911.037,710.89 911.703,709.39 911.5,707.5C 910.167,707.5 908.833,707.5 907.5,707.5C 907.5,706.167 907.5,704.833 907.5,703.5C 906.167,703.5 904.833,703.5 903.5,703.5C 903.5,700.5 903.5,697.5 903.5,694.5C 900.373,694.876 897.373,694.876 894.5,694.5C 899.132,693.672 903.798,693.172 908.5,693C 898.325,692.83 888.325,692.33 878.5,691.5C 889.172,691.667 899.839,691.5 910.5,691C 912.35,690.31 913.684,689.144 914.5,687.5C 914.739,689.467 914.406,691.301 913.5,693C 914.833,696.333 916.167,696.333 917.5,693C 916.62,691.644 916.286,690.144 916.5,688.5C 920.072,688.062 923.572,687.396 927,686.5C 927.499,681.511 927.666,676.511 927.5,671.5C 930.249,671.726 932.916,671.393 935.5,670.5C 936.452,668.955 936.785,667.288 936.5,665.5 Z"/></g>
<g><path style="opacity:1" fill="#5a6266" d="M 1115.5,670.5 C 1104.35,671.495 1093.01,671.828 1081.5,671.5C 1081.5,678.167 1081.5,684.833 1081.5,691.5C 1080.51,684.687 1080.18,677.687 1080.5,670.5C 1092.17,670.5 1103.83,670.5 1115.5,670.5 Z"/></g>
<g><path style="opacity:1" fill="#a9b8b5" d="M 1224.5,676.5 C 1224.5,677.5 1224.5,678.5 1224.5,679.5C 1222.44,677.957 1222.44,676.957 1224.5,676.5 Z"/></g>
<g><path style="opacity:1" fill="#737c78" d="M 1038.5,624.5 C 1028.68,625.494 1018.68,625.827 1008.5,625.5C 1008.83,654.005 1008.5,682.338 1007.5,710.5C 1007.5,681.833 1007.5,653.167 1007.5,624.5C 1017.83,624.5 1028.17,624.5 1038.5,624.5 Z"/></g>
<g><path style="opacity:1" fill="#b9bfb9" d="M 1195.5,683.5 C 1190.83,683.5 1186.17,683.5 1181.5,683.5C 1181.83,692.349 1181.49,701.016 1180.5,709.5C 1180.5,700.5 1180.5,691.5 1180.5,682.5C 1185.69,682.179 1190.69,682.513 1195.5,683.5 Z"/></g>
<g><path style="opacity:1" fill="#b2b6b2" d="M 790.5,683.5 C 786.167,683.5 781.833,683.5 777.5,683.5C 777.826,692.017 777.493,700.35 776.5,708.5C 776.5,699.833 776.5,691.167 776.5,682.5C 781.363,682.181 786.03,682.514 790.5,683.5 Z"/></g>
<g><path style="opacity:1" fill="#c7d4db" d="M 938.5,702.5 C 938.5,703.833 937.833,704.5 936.5,704.5C 936.833,703.5 937.5,702.833 938.5,702.5 Z"/></g>
<g><path style="opacity:1" fill="#e5e2d6" d="M 925.5,717.5 C 926.833,718.167 926.833,718.167 925.5,717.5 Z"/></g>
<g><path style="opacity:1" fill="#0f1518" d="M 908.5,736.5 C 914.176,736.334 919.843,736.501 925.5,737C 933.947,739.711 937.447,745.544 936,754.5C 934.895,757.937 932.728,760.437 929.5,762C 932.205,765.242 934.539,768.742 936.5,772.5C 934.945,777.47 931.945,778.637 927.5,776C 924.357,772.18 921.357,768.346 918.5,764.5C 917.558,764.608 916.725,764.941 916,765.5C 915.667,768.833 915.333,772.167 915,775.5C 911.706,778.311 908.706,777.978 906,774.5C 905.333,762.833 905.333,751.167 906,739.5C 906.698,738.309 907.531,737.309 908.5,736.5 Z M 916.5,746.5 C 919.187,746.336 921.854,746.503 924.5,747C 926.648,749.075 926.982,751.408 925.5,754C 922.183,754.498 918.85,754.665 915.5,754.5C 915.279,751.721 915.612,749.054 916.5,746.5 Z"/></g>
<g><path style="opacity:1" fill="#0f1418" d="M 857.5,736.5 C 864.175,736.334 870.842,736.5 877.5,737C 884.358,739.549 886.858,744.383 885,751.5C 884.215,753.286 883.049,754.786 881.5,756C 887.338,761.375 888.005,767.375 883.5,774C 878.563,776.888 873.23,778.055 867.5,777.5C 864.5,777.333 861.5,777.167 858.5,777C 857.584,776.626 856.75,776.126 856,775.5C 854.375,763.596 854.042,751.596 855,739.5C 855.698,738.309 856.531,737.309 857.5,736.5 Z M 864.5,746.5 C 867.85,746.335 871.183,746.502 874.5,747C 875.38,748.356 875.714,749.856 875.5,751.5C 871.833,751.5 868.167,751.5 864.5,751.5C 864.5,749.833 864.5,748.167 864.5,746.5 Z M 866.5,761.5 C 870.179,761.06 873.512,761.727 876.5,763.5C 876.461,764.583 876.127,765.583 875.5,766.5C 871.893,767.489 868.226,767.823 864.5,767.5C 864.054,764.99 864.72,762.99 866.5,761.5 Z"/></g>
<g><path style="opacity:1" fill="#12181c" d="M 969.5,735.5 C 971.917,735.978 974.084,736.978 976,738.5C 978.468,745.434 981.468,752.101 985,758.5C 986.794,763.084 988.294,767.751 989.5,772.5C 988.163,777.432 985.163,778.598 980.5,776C 978.983,773.796 977.65,771.462 976.5,769C 972.167,768.333 967.833,768.333 963.5,769C 962.544,771.877 961.211,774.544 959.5,777C 953.657,778.359 951.157,776.192 952,770.5C 955.965,759.242 960.465,748.242 965.5,737.5C 967.026,737.006 968.359,736.339 969.5,735.5 Z M 972.5,756.5 C 972.443,757.609 972.11,758.609 971.5,759.5C 970.167,759.5 968.833,759.5 967.5,759.5C 967.737,756.353 968.57,753.353 970,750.5C 970.938,752.488 971.772,754.488 972.5,756.5 Z"/></g>
<g><path style="opacity:1" fill="#12181a" d="M 1005.5,736.5 C 1012.59,736.116 1019.59,736.616 1026.5,738C 1033.49,742.461 1035.66,748.627 1033,756.5C 1030.98,758.35 1029.15,760.35 1027.5,762.5C 1029.72,765.773 1032.05,768.94 1034.5,772C 1033.59,776.586 1030.93,778.252 1026.5,777C 1022.58,773.908 1019.58,770.074 1017.5,765.5C 1016.31,764.571 1014.98,764.238 1013.5,764.5C 1013.66,767.518 1013.5,770.518 1013,773.5C 1009.76,778.701 1006.43,778.701 1003,773.5C 1002.33,762.167 1002.33,750.833 1003,739.5C 1003.7,738.309 1004.53,737.309 1005.5,736.5 Z M 1013.5,746.5 C 1016.65,746.211 1019.65,746.711 1022.5,748C 1024.22,751.086 1023.55,753.419 1020.5,755C 1012.76,756.8 1010.42,753.967 1013.5,746.5 Z"/></g>
<g><path style="opacity:1" fill="#151c1e" d="M 1051.5,735.5 C 1052.55,735.351 1053.55,735.517 1054.5,736C 1058.41,740.562 1062.24,745.062 1066,749.5C 1069.52,745.634 1072.69,741.467 1075.5,737C 1078.19,735.54 1080.69,736.04 1083,738.5C 1083.63,740.635 1083.3,742.635 1082,744.5C 1078.42,748.653 1075.09,752.986 1072,757.5C 1071.67,762.833 1071.33,768.167 1071,773.5C 1068.08,778.233 1064.74,778.566 1061,774.5C 1060.67,769.5 1060.33,764.5 1060,759.5C 1055.75,754.009 1051.75,748.342 1048,742.5C 1047.18,739.16 1048.34,736.827 1051.5,735.5 Z"/></g>
<g><path style="opacity:1" fill="#0a1116" d="M 799.5,768.5 C 799.5,770.833 799.5,773.167 799.5,775.5C 799.082,776.222 798.416,776.722 797.5,777C 789.833,777.667 782.167,777.667 774.5,777C 772.574,776.578 771.574,775.411 771.5,773.5C 771.207,761.45 771.541,749.45 772.5,737.5C 774.895,736.186 777.395,736.186 780,737.5C 780.5,747.494 780.666,757.494 780.5,767.5C 787.022,767.177 793.355,767.51 799.5,768.5 Z"/></g>
<g><path style="opacity:1" fill="#131b22" d="M 827.5,735.5 C 829.679,735.84 831.512,736.84 833,738.5C 833.667,750.5 833.667,762.5 833,774.5C 828.82,778.792 825.487,778.126 823,772.5C 822.333,761.833 822.333,751.167 823,740.5C 824.025,738.313 825.525,736.646 827.5,735.5 Z"/></g>
<g><path style="opacity:1" fill="#99a19d" d="M 972.5,756.5 C 973.885,757.947 973.552,758.947 971.5,759.5C 972.11,758.609 972.443,757.609 972.5,756.5 Z"/></g>
<g><path style="opacity:1" fill="#364548" d="M 772.5,737.5 C 771.541,749.45 771.207,761.45 771.5,773.5C 770.341,762.007 770.174,750.341 771,738.5C 771.383,737.944 771.883,737.611 772.5,737.5 Z"/></g>
<g><path style="opacity:1" fill="#565b5f" d="M 866.5,761.5 C 869.625,760.521 872.958,760.187 876.5,760.5C 876.5,761.5 876.5,762.5 876.5,763.5C 873.512,761.727 870.179,761.06 866.5,761.5 Z"/></g>
<g><path style="opacity:1" fill="#4f6065" d="M 799.5,768.5 C 802.167,770.833 802.167,773.167 799.5,775.5C 799.5,773.167 799.5,770.833 799.5,768.5 Z"/></g>
<g><path style="opacity:1" fill="#e7e8db" d="M 1634.5,853.5 C 1635.83,854.167 1635.83,854.167 1634.5,853.5 Z"/></g>
</svg>
