<svg xmlns="http://www.w3.org/2000/svg" width="1792" height="1024" viewBox="0 0 1792 1024" version="1.1"><path d="M 1088.468 361.500 C 1088.468 392.850, 1088.595 405.530, 1088.750 389.679 C 1088.904 373.827, 1088.904 348.177, 1088.749 332.679 C 1088.594 317.180, 1088.468 330.150, 1088.468 361.500 M 797.480 421 C 797.480 472.975, 797.601 494.237, 797.750 468.250 C 797.898 442.262, 797.898 399.737, 797.750 373.750 C 797.601 347.762, 797.480 369.025, 797.480 421 M 851.486 334.102 C 853.001 338.052, 834.904 340.508, 825.579 337.618 C 822.873 336.779, 820.269 336.334, 819.793 336.628 C 819.317 336.922, 818.981 345.192, 819.046 355.006 L 819.164 372.850 822.332 374.326 C 830.339 378.055, 846.235 378.811, 850.396 375.660 C 851.673 374.692, 851.952 371.132, 852.080 354.199 C 852.164 343.034, 851.931 333.598, 851.563 333.230 C 851.195 332.862, 851.160 333.255, 851.486 334.102 M 867 361 C 867 371.633, 867.206 380.127, 867.459 379.875 C 868.144 379.190, 868.266 342.932, 867.585 342.252 C 867.263 341.930, 867 350.367, 867 361 M 812.382 354.500 C 812.384 361.100, 812.546 363.670, 812.741 360.211 C 812.937 356.752, 812.936 351.352, 812.738 348.211 C 812.540 345.070, 812.380 347.900, 812.382 354.500 M 925 370 C 925 381.733, 925.208 391.125, 925.462 390.871 C 926.144 390.189, 926.257 349.924, 925.579 349.245 C 925.260 348.927, 925 358.267, 925 370 M 905.686 354.480 C 904.138 355.288, 900.276 356.484, 897.104 357.139 C 891.382 358.321, 888.599 357.946, 877.295 354.469 L 875.091 353.790 874.795 371.372 L 874.500 388.954 880.500 391.651 C 885.264 393.792, 888.045 394.354, 894 394.377 C 898.125 394.393, 903.188 393.830, 905.250 393.125 L 909 391.845 909 372.422 C 909 361.740, 908.888 353.003, 908.750 353.006 C 908.612 353.010, 907.234 353.673, 905.686 354.480 M 965.734 362.390 C 966.077 364.182, 965.639 364.865, 963.840 365.346 C 959.266 366.571, 943.567 365.994, 939.096 364.437 C 931.952 361.950, 932 361.841, 932 380.528 C 932 392.813, 931.700 396.933, 930.845 396.405 C 930.124 395.959, 929.963 396.131, 930.415 396.862 C 930.813 397.506, 931.557 397.774, 932.069 397.457 C 932.581 397.141, 933 397.303, 933 397.818 C 933 398.333, 935.362 399.781, 938.250 401.036 C 944.506 403.756, 956.523 404.755, 962.750 403.072 L 967 401.923 967 381.520 C 967 370.299, 966.615 360.880, 966.144 360.589 C 965.674 360.298, 965.489 361.109, 965.734 362.390 M 819.725 396.609 C 819.326 397.007, 819 401.099, 819 405.702 L 819 414.071 823.750 416.219 C 827.544 417.934, 830.512 418.380, 838.500 418.433 C 844 418.470, 849.288 418.177, 850.250 417.781 C 851.762 417.160, 852 415.615, 852 406.415 C 852 395.832, 851.986 395.771, 849.750 396.465 C 839.392 399.681, 832.700 399.693, 822.475 396.514 C 821.361 396.168, 820.123 396.210, 819.725 396.609 M 867.234 430.750 L 867.469 460.500 867.750 431.090 L 868.031 401.680 870.765 404.090 L 873.500 406.500 871.076 403.750 C 869.742 402.238, 868.280 401, 867.826 401 C 867.372 401, 867.105 414.387, 867.234 430.750 M 925.240 458.750 L 925.480 506.500 925.750 459.136 C 926.005 414.295, 926.112 411.844, 927.760 413.136 C 929.335 414.371, 929.370 414.334, 928.128 412.750 C 927.373 411.788, 926.360 411, 925.878 411 C 925.383 411, 925.105 431.843, 925.240 458.750 M 875.683 412.750 C 875.444 413.163, 875.042 420.925, 874.791 430 C 874.540 439.075, 874.503 443.238, 874.709 439.250 C 874.957 434.458, 875.494 432, 876.292 432.001 C 876.956 432.001, 879.975 432.943, 883 434.093 C 889.399 436.528, 901.427 436.458, 906.500 433.958 C 909.446 432.505, 909.505 432.326, 909.755 423.989 C 910.086 412.990, 909.793 412.575, 903.091 414.566 C 896.464 416.534, 887.993 416.253, 881.500 413.851 C 875.683 411.699, 876.232 411.803, 875.683 412.750 M 965.745 421.869 C 964.798 425.488, 947.371 425.806, 937.666 422.382 C 935.533 421.629, 933.355 421.280, 932.827 421.607 C 932.232 421.974, 931.949 439.405, 932.081 467.498 L 932.294 512.796 936.897 514.934 C 944.967 518.682, 955.836 519.529, 963.482 517.006 L 967 515.845 967 487.815 C 967 461.506, 966.893 459.831, 965.250 460.526 C 964.288 460.933, 959.900 461.463, 955.500 461.703 C 948.567 462.083, 946.901 461.831, 943.009 459.821 C 937.790 457.124, 935.403 453.515, 936.348 449.751 C 937.675 444.462, 939.268 443.858, 949.946 444.593 C 956.606 445.052, 960.840 444.878, 963.377 444.041 L 967.082 442.818 966.893 431.409 C 966.789 425.134, 966.598 420, 966.468 420 C 966.339 420, 966.013 420.841, 965.745 421.869 M 819.397 434.325 C 819.047 435.429, 818.926 450.212, 819.130 467.177 L 819.500 498.023 824 499.761 C 829.328 501.820, 844.968 502.124, 849.250 500.252 L 852 499.050 852 466.550 L 852 434.050 849.435 435.025 C 845.152 436.653, 831.065 436.130, 825.267 434.127 C 820.106 432.344, 820.025 432.347, 819.397 434.325 M 753.750 439.740 C 757.188 439.936, 762.813 439.936, 766.250 439.740 C 769.688 439.545, 766.875 439.385, 760 439.385 C 753.125 439.385, 750.313 439.545, 753.750 439.740 M 1124.789 439.741 C 1128.248 439.937, 1133.648 439.936, 1136.789 439.738 C 1139.930 439.540, 1137.100 439.380, 1130.500 439.382 C 1123.900 439.384, 1121.330 439.546, 1124.789 439.741 M 874.534 448.945 C 873.877 450.008, 874.076 488.918, 874.807 502.346 L 875.179 509.192 879.840 511.314 C 885.719 513.991, 901.711 514.403, 906.472 512 C 908.106 511.175, 909.344 510.163, 909.222 509.750 C 909.100 509.337, 909 495.986, 909 480.081 L 909 451.161 905.250 452.203 C 897.123 454.460, 887.464 453.229, 876.851 448.585 C 875.944 448.188, 874.901 448.350, 874.534 448.945 M 733.250 469.747 C 739.712 469.921, 750.288 469.921, 756.750 469.747 C 763.212 469.573, 757.925 469.430, 745 469.430 C 732.075 469.430, 726.788 469.573, 733.250 469.747 M 818.621 515.195 C 818.950 515.728, 819.148 521.699, 819.061 528.463 C 818.974 535.228, 819.181 541.873, 819.521 543.230 C 820.338 546.482, 825.650 548.949, 833.395 549.672 C 840.117 550.300, 850.921 548.504, 851.484 546.666 C 851.681 546.025, 852.056 539.178, 852.319 531.451 L 852.796 517.402 845.888 518.789 C 837.991 520.376, 827.822 519.223, 821.562 516.032 C 819.615 515.039, 818.292 514.663, 818.621 515.195 M 750.813 519.749 C 759.785 519.914, 774.185 519.914, 782.813 519.748 C 791.441 519.581, 784.100 519.446, 766.500 519.446 C 748.900 519.447, 741.841 519.583, 750.813 519.749 M 1104.789 519.741 C 1108.248 519.937, 1113.648 519.936, 1116.789 519.738 C 1119.930 519.540, 1117.100 519.380, 1110.500 519.382 C 1103.900 519.384, 1101.330 519.546, 1104.789 519.741 M 867.217 534.250 L 867.435 547.500 867.748 534.623 L 868.062 521.746 870.281 523.623 L 872.500 525.500 870.595 523.250 C 869.547 522.013, 868.310 521, 867.845 521 C 867.380 521, 867.098 526.962, 867.217 534.250 M 874.500 526.836 C 875.106 527.476, 875.303 532.147, 875 538.696 C 874.199 556.005, 874.397 556.841, 879.865 559.290 C 886.403 562.218, 900.343 562.880, 905.356 560.501 L 909 558.772 909 543.779 C 909 529.908, 908.869 528.837, 907.250 529.466 C 898.924 532.700, 885.882 531.983, 877.602 527.835 C 875.346 526.705, 873.950 526.255, 874.500 526.836 M 925.392 540 C 925.392 547.425, 925.549 550.462, 925.742 546.750 C 925.934 543.038, 925.934 536.962, 925.742 533.250 C 925.549 529.538, 925.392 532.575, 925.392 540 M 931.415 530.859 C 931.876 531.607, 932.170 536.727, 932.067 542.238 C 931.964 547.808, 932.453 554.490, 933.170 557.286 C 934.334 561.830, 934.896 562.517, 938.979 564.403 C 945.076 567.217, 960.197 567.411, 964.294 564.727 L 967 562.954 967 548.897 L 967 534.841 963.750 535.671 C 955.290 537.830, 939.881 535.534, 933.039 531.096 C 931.277 529.954, 930.816 529.886, 931.415 530.859 M 1248.214 607.186 C 1247.299 608.101, 1247.424 608.821, 1248.764 610.332 C 1250.029 611.761, 1250.163 612.410, 1249.259 612.726 C 1248.271 613.072, 1248.271 613.413, 1249.259 614.400 C 1251.056 616.194, 1254.888 616.991, 1255.665 615.733 C 1256.627 614.176, 1256.651 609.097, 1255.693 609.690 C 1254.290 610.557, 1250.034 610.754, 1250.544 609.929 C 1250.813 609.494, 1250.527 608.826, 1249.910 608.444 C 1249.114 607.952, 1249.182 607.499, 1250.143 606.890 C 1250.889 606.417, 1251.027 606.024, 1250.450 606.015 C 1249.873 606.007, 1248.866 606.534, 1248.214 607.186 M 750.460 665.500 C 750.460 690.250, 750.590 700.232, 750.749 687.682 C 750.908 675.132, 750.908 654.882, 750.749 642.682 C 750.590 630.482, 750.460 640.750, 750.460 665.500 M 959.250 625.743 C 963.513 625.931, 970.487 625.931, 974.750 625.743 C 979.013 625.556, 975.525 625.402, 967 625.402 C 958.475 625.402, 954.987 625.556, 959.250 625.743 M 1008.239 668.250 L 1008.478 711.500 1008.750 668.776 L 1009.021 626.052 1024.261 625.748 L 1039.500 625.444 1023.750 625.222 L 1008 625 1008.239 668.250 M 1081.212 636.250 L 1081.425 647.500 1081.746 636.767 L 1082.067 626.033 1108.284 625.749 L 1134.500 625.465 1107.750 625.233 L 1081 625 1081.212 636.250 M 1181.405 640.500 C 1181.406 649.300, 1181.559 652.766, 1181.745 648.203 C 1181.930 643.639, 1181.929 636.439, 1181.742 632.203 C 1181.555 627.966, 1181.404 631.700, 1181.405 640.500 M 1188.287 625.740 C 1191.469 625.939, 1196.419 625.937, 1199.287 625.736 C 1202.154 625.535, 1199.550 625.372, 1193.500 625.374 C 1187.450 625.376, 1185.104 625.541, 1188.287 625.740 M 885.292 650.742 C 889.027 650.935, 894.877 650.934, 898.292 650.739 C 901.706 650.545, 898.650 650.387, 891.500 650.389 C 884.350 650.390, 881.556 650.550, 885.292 650.742 M 783.287 659.740 C 786.469 659.939, 791.419 659.937, 794.287 659.736 C 797.154 659.535, 794.550 659.372, 788.500 659.374 C 782.450 659.376, 780.104 659.541, 783.287 659.740 M 1186.789 659.741 C 1190.248 659.937, 1195.648 659.936, 1198.789 659.738 C 1201.930 659.540, 1199.100 659.380, 1192.500 659.382 C 1185.900 659.384, 1183.330 659.546, 1186.789 659.741 M 890.750 670.737 C 893.638 670.939, 898.362 670.939, 901.250 670.737 C 904.138 670.535, 901.775 670.370, 896 670.370 C 890.225 670.370, 887.862 670.535, 890.750 670.737 M 1090.250 671.745 C 1095.063 671.928, 1102.938 671.928, 1107.750 671.745 C 1112.563 671.561, 1108.625 671.411, 1099 671.411 C 1089.375 671.411, 1085.438 671.561, 1090.250 671.745 M 777.217 696.250 L 777.435 709.500 777.747 696.795 L 778.059 684.090 784.780 683.741 L 791.500 683.392 784.250 683.196 L 777 683 777.217 696.250 M 1181.218 696.750 L 1181.437 710.500 1181.747 697.250 L 1182.058 684 1188.829 684 C 1192.832 684, 1196.173 684.511, 1197.002 685.250 C 1198.194 686.313, 1198.206 686.239, 1197.079 684.750 C 1196.028 683.361, 1194.233 683, 1188.378 683 L 1181 683 1181.218 696.750 M 886.250 692.743 C 890.513 692.931, 897.487 692.931, 901.750 692.743 C 906.013 692.556, 902.525 692.402, 894 692.402 C 885.475 692.402, 881.987 692.556, 886.250 692.743 M 823.407 757 C 823.407 766.075, 823.559 769.788, 823.744 765.250 C 823.929 760.712, 823.929 753.288, 823.744 748.750 C 823.559 744.212, 823.407 747.925, 823.407 757 M 780.789 777.741 C 784.248 777.937, 789.648 777.936, 792.789 777.738 C 795.930 777.540, 793.100 777.380, 786.500 777.382 C 779.900 777.384, 777.330 777.546, 780.789 777.741 M 863.250 777.735 C 865.862 777.941, 870.138 777.941, 872.750 777.735 C 875.362 777.529, 873.225 777.360, 868 777.360 C 862.775 777.360, 860.638 777.529, 863.250 777.735" stroke="none" fill="#3ca6e1" fill-rule="evenodd"/><path d="M 932 254.895 C 929.525 255.886, 922.788 258.833, 917.029 261.445 C 911.270 264.056, 901.820 267.453, 896.029 268.994 C 884.007 272.192, 821.890 297.937, 814.036 302.977 C 806.983 307.503, 801.285 314.302, 799.495 320.328 C 798.213 324.646, 798 339.222, 798 422.682 L 798 520 766.135 520 C 735.412 520, 734.175 520.074, 731.635 522.073 C 728.260 524.727, 728.173 528.928, 731.415 532.694 L 733.829 535.500 765.665 535.629 L 797.500 535.759 798.061 539.629 C 799.680 550.794, 810.601 560.205, 825.896 563.616 C 834.661 565.571, 846.323 565.081, 852.764 562.488 L 857.028 560.771 861.400 564.801 C 874.858 577.206, 897.531 580.413, 914.083 572.253 L 919.667 569.500 922.083 571.786 C 925.670 575.179, 935.286 579.710, 941.747 581.051 C 944.875 581.701, 950.824 582.020, 954.967 581.761 C 963.732 581.213, 966.821 580.004, 1040.651 548.203 L 1068.801 536.078 1101.988 535.789 L 1135.175 535.500 1137.661 532.609 C 1140.571 529.225, 1140.218 525.863, 1136.563 522.147 C 1134.285 519.831, 1133.908 519.791, 1112.666 519.639 C 1099.919 519.547, 1090.693 519.078, 1090.129 518.492 C 1089.544 517.884, 1088.893 476.115, 1088.448 410.689 C 1087.779 312.385, 1087.586 303.710, 1086.024 301.782 C 1083.341 298.468, 1079.424 299.316, 1064.903 306.353 C 1057.531 309.925, 1046.550 315.069, 1040.500 317.785 C 1034.450 320.500, 1022.300 326.109, 1013.500 330.249 C 981.553 345.280, 970.523 350.070, 970.186 349.058 C 969.997 348.491, 969.089 347.097, 968.169 345.961 C 966.595 344.016, 966.286 343.983, 962.916 345.391 C 957.321 347.728, 950.030 348.330, 945.514 346.827 C 940.790 345.255, 939.915 342.757, 943.309 340.533 C 947.726 337.639, 1004.454 313.010, 1006.715 313.005 C 1009.549 312.999, 1011.442 316.306, 1010.070 318.869 C 1008.949 320.964, 1009.564 322.005, 1011.917 321.991 C 1015.139 321.971, 1059.505 301.019, 1061.750 298.457 C 1065.513 294.162, 1064.365 289.222, 1059.097 287.040 C 1055.380 285.500, 1052.741 286.292, 1037.103 293.643 C 1030.835 296.589, 1025.490 299, 1025.225 299 C 1024.961 299, 1025.035 297.185, 1025.389 294.966 C 1026.173 290.066, 1025.024 287.667, 1021.117 286.049 C 1017.787 284.669, 1017.248 284.882, 982.500 301.293 C 917.955 331.775, 906.212 337.170, 902.570 338.011 C 894.915 339.779, 886.645 339.235, 882.898 336.716 C 877.869 333.335, 877.954 330.692, 883.191 327.654 C 890.845 323.213, 950.425 296, 952.493 296 C 954.767 296, 957.220 299.733, 956.479 302.066 C 955.866 303.999, 956.073 304.208, 958.139 303.733 C 962.383 302.757, 998.442 286.175, 1000.750 284.138 C 1003.819 281.429, 1003.727 276.636, 1000.545 273.455 C 997.398 270.308, 993.948 270.342, 987 273.592 C 981.777 276.034, 969.967 281, 969.381 281 C 969.230 281, 969.180 279.148, 969.270 276.885 C 969.404 273.516, 968.932 272.338, 966.661 270.385 C 965.136 269.073, 963.181 268, 962.316 268 C 960.145 268, 945.054 274.510, 922.500 285.176 C 904.665 293.610, 897.247 297.194, 864.296 313.302 C 845.297 322.589, 832.952 324.303, 826.295 318.577 L 823.627 316.283 827.642 313.374 C 829.851 311.774, 836.347 308.504, 842.079 306.106 C 847.810 303.709, 860.171 298.429, 869.548 294.374 C 878.924 290.318, 887.136 287, 887.798 287 C 888.459 287, 889 287.900, 889 289 C 889 290.100, 889.611 291, 890.357 291 C 891.104 291, 901.566 286.576, 913.607 281.168 C 925.648 275.761, 936.980 270.749, 938.790 270.031 C 946.232 267.076, 947.498 257.860, 940.928 254.463 C 937.474 252.676, 937.551 252.673, 932 254.895 M 849.250 309.170 C 842.905 312.223, 841.591 314.177, 844.750 315.865 C 846.911 317.020, 859 311.843, 859 309.762 C 859 308.373, 857.045 305.934, 856.050 306.082 C 855.748 306.126, 852.688 307.516, 849.250 309.170 M 934.500 309.207 C 933.400 309.860, 924.865 313.923, 915.534 318.237 C 896.473 327.049, 895.187 328.044, 898.534 331.391 C 900.451 333.308, 900.400 333.327, 923.296 322.247 C 939.977 314.175, 941.079 313.471, 940.799 311.066 C 940.458 308.139, 937.680 307.319, 934.500 309.207 M 979.250 330.465 C 970.252 334.828, 964 338.440, 964 339.275 C 964 340.053, 964.788 341.374, 965.750 342.211 C 967.345 343.596, 968.930 343.044, 983.633 335.977 C 999.064 328.560, 999.744 328.109, 999.266 325.611 C 998.911 323.752, 998.152 323.010, 996.633 323.035 C 995.460 323.054, 987.638 326.398, 979.250 330.465 M 812 345.200 C 812 362.165, 812.264 365.932, 813.586 367.819 C 817.961 374.066, 831.771 378.672, 842.654 377.516 C 852.329 376.487, 851.909 377.537, 852.048 354 C 852.146 337.315, 851.920 333.582, 850.834 333.942 C 850.100 334.184, 845.129 334.564, 839.787 334.784 C 828.183 335.263, 822.319 333.677, 816.141 328.388 L 812 324.844 812 345.200 M 867 360.647 C 867 384.150, 867.215 384.717, 878.326 390.427 C 885.258 393.990, 886.686 394.356, 893.733 394.380 C 898.005 394.394, 903.188 393.830, 905.250 393.125 L 909 391.845 909 371.377 L 909 350.909 905.250 351.705 C 903.188 352.142, 897.225 352.483, 892 352.463 C 881.367 352.421, 875.980 350.542, 870.149 344.841 L 867 341.763 867 360.647 M 925 369.992 L 925 390.930 927.973 394.317 C 934.445 401.688, 951.760 406.042, 962.770 403.066 L 967.040 401.912 966.770 381.206 C 966.538 363.374, 966.292 360.556, 965 360.902 C 964.175 361.124, 959.450 361.504, 954.500 361.747 C 943.089 362.308, 935.854 359.906, 929.343 353.396 L 925 349.053 925 369.992 M 812 395.913 C 812 406.169, 812.158 407.034, 814.546 409.872 C 815.947 411.537, 819.659 414.145, 822.796 415.668 C 827.844 418.119, 829.649 418.441, 838.500 418.469 C 844 418.486, 849.288 418.177, 850.250 417.781 C 851.787 417.150, 852 415.520, 852 404.409 C 852 393.220, 851.825 391.901, 850.485 393.012 C 849.652 393.703, 845.932 394.487, 842.219 394.752 C 833.480 395.377, 824.157 393.026, 817.250 388.454 L 812 384.980 812 395.913 M 867.245 451.034 L 867.554 501.067 870.250 504.447 C 871.734 506.306, 875.547 509.104, 878.724 510.664 C 883.837 513.174, 885.591 513.500, 894 513.500 C 903.015 513.500, 909.534 511.885, 909.139 509.750 C 909.062 509.337, 909 495.923, 909 479.941 C 909 463.959, 908.630 451.111, 908.177 451.391 C 907.724 451.670, 904.520 452.356, 901.057 452.913 C 894.009 454.048, 887.628 453.106, 879.750 449.767 L 875 447.754 875 439.877 C 875 434.242, 875.356 432, 876.250 432.001 C 876.938 432.001, 879.975 432.943, 883 434.093 C 889.398 436.527, 901.424 436.459, 906.500 433.959 C 909.267 432.597, 909.525 432.017, 909.821 426.491 C 909.997 423.196, 909.848 418.104, 909.489 415.176 L 908.838 409.852 904.669 410.676 C 898.059 411.983, 886.953 411.485, 881.391 409.634 C 878.581 408.698, 874.459 406.373, 872.232 404.466 C 870.004 402.560, 867.902 401, 867.559 401 C 867.216 401, 867.075 423.515, 867.245 451.034 M 925 458.365 C 925 512.791, 924.240 508.568, 935.020 514.010 C 944.035 518.561, 955.207 519.737, 963.482 517.006 L 967 515.845 967 487.815 C 967 461.506, 966.893 459.831, 965.250 460.526 C 964.288 460.933, 959.900 461.463, 955.500 461.703 C 948.567 462.083, 946.901 461.831, 943.009 459.821 C 937.790 457.124, 935.403 453.515, 936.348 449.751 C 937.675 444.462, 939.268 443.858, 949.946 444.593 C 956.606 445.052, 960.840 444.878, 963.377 444.041 L 967.082 442.818 966.895 431.556 L 966.709 420.294 957.463 420.778 C 946.551 421.348, 937.059 418.999, 930.199 414.029 C 927.899 412.363, 925.788 411, 925.509 411 C 925.229 411, 925 432.314, 925 458.365 M 745.635 426.073 C 742.191 428.782, 742.043 433.752, 745.314 436.826 C 747.428 438.811, 748.682 439, 759.733 439 C 766.390 439, 772.565 438.720, 773.455 438.379 C 775.716 437.511, 778.226 432.288, 777.492 429.976 C 777.157 428.918, 775.723 427.140, 774.306 426.026 C 772.052 424.253, 770.266 424, 760 424 C 749.647 424, 747.960 424.243, 745.635 426.073 M 1115.174 426.314 C 1112.290 429.385, 1112.403 433.493, 1115.455 436.545 C 1117.798 438.889, 1118.473 439, 1130.378 439 C 1142.333 439, 1142.973 438.893, 1145.923 436.411 C 1149.269 433.596, 1149.580 432.368, 1147.890 428.657 C 1146.150 424.838, 1142.863 424, 1129.627 424 C 1118.086 424, 1117.218 424.139, 1115.174 426.314 M 812 458.430 L 812 490.847 814.477 493.790 C 818.842 498.977, 826.114 501.457, 837 501.468 C 842.300 501.474, 847.716 500.942, 849.250 500.264 L 852 499.050 852 466.550 L 852 434.050 849.435 435.025 C 845.529 436.510, 831.998 436.189, 826.224 434.474 C 823.397 433.634, 819.041 431.387, 816.542 429.480 L 812 426.013 812 458.430 M 744.309 469.749 L 720.117 470.035 718.059 472.653 C 715.617 475.757, 715.514 477.160, 717.453 480.909 C 719.966 485.769, 722.366 486.125, 750.414 485.799 L 776.176 485.500 778.588 482.694 C 780.966 479.928, 781.595 476.714, 780.379 473.545 C 779.507 471.274, 774.629 468.956, 771.300 469.231 C 769.760 469.359, 757.614 469.592, 744.309 469.749 M 1113.787 469.709 C 1107.995 470.038, 1106.795 470.445, 1105.037 472.680 C 1102.345 476.102, 1102.464 479.266, 1105.414 482.694 L 1107.828 485.500 1131.001 485.500 L 1154.174 485.500 1156.587 482.694 C 1159.648 479.135, 1159.649 475.867, 1156.589 472.306 L 1154.178 469.500 1137.339 469.414 C 1128.077 469.367, 1117.479 469.500, 1113.787 469.709 M 812 523.097 C 812 533.688, 812.371 537.818, 813.525 540.048 C 815.673 544.203, 825.389 548.925, 833.312 549.665 C 840.115 550.300, 850.917 548.517, 851.484 546.666 C 851.681 546.025, 852.056 539.174, 852.319 531.441 L 852.797 517.382 846.148 518.773 C 835.160 521.072, 821.538 517.935, 814.604 511.509 L 812 509.095 812 523.097 M 867.174 534.832 C 867.488 548.134, 867.605 548.801, 870.242 552.254 C 874.588 557.946, 882.623 561.318, 893.025 561.816 C 899.828 562.141, 902.501 561.856, 905.356 560.501 L 909 558.772 909 543.779 C 909 529.908, 908.869 528.837, 907.250 529.466 C 906.288 529.840, 903.072 530.598, 900.105 531.150 C 890.524 532.935, 875.865 528.940, 870.595 523.108 C 869.547 521.949, 868.276 521, 867.769 521 C 867.237 521, 866.986 526.837, 867.174 534.832 M 925.676 526.658 C 925.304 527.029, 925 533.004, 925 539.935 C 925 551.588, 925.181 552.801, 927.400 556.067 C 928.954 558.354, 932.196 560.815, 936.598 563.050 C 942.868 566.232, 944.101 566.500, 952.492 566.500 C 959.516 566.500, 962.204 566.096, 964.294 564.727 L 967 562.954 967 548.897 L 967 534.841 963.750 535.671 C 952.815 538.461, 936.379 534.802, 928.426 527.806 C 927.285 526.803, 926.048 526.286, 925.676 526.658 M 662.202 599.022 C 658.188 600.074, 652.113 602.391, 648.702 604.171 C 640.443 608.481, 627.450 621.535, 623.698 629.293 C 617.357 642.404, 615.309 659.655, 618.585 672.356 C 624.098 693.724, 643.255 712.333, 665 717.443 C 695.722 724.662, 728.316 705.364, 737.619 674.448 C 740.451 665.035, 740.037 649.644, 736.677 639.422 C 730.133 619.513, 713.121 603.747, 692.540 598.515 C 684.423 596.452, 671.167 596.673, 662.202 599.022 M 754.308 601.143 C 753.103 601.754, 751.806 602.984, 751.426 603.877 C 750.222 606.707, 751.027 709.965, 752.275 712.704 C 753.828 716.113, 758.007 718, 764 718 C 770.088 718, 774.175 716.105, 775.805 712.528 C 776.542 710.910, 777 704.753, 777 696.453 L 777 683 783.826 683 C 791.969 683, 791.048 682.187, 803.876 700.685 C 815.666 717.686, 816.079 718.004, 826.385 717.985 C 835.496 717.969, 839.039 716.673, 840.377 712.869 C 841.849 708.684, 840.615 706.190, 830.049 691.985 C 824.532 684.568, 820.031 678.275, 820.046 678 C 820.061 677.725, 822.122 676.201, 824.626 674.613 C 833.738 668.836, 838.873 658.548, 839.743 644.329 C 840.649 629.512, 834.843 616.810, 823.304 608.364 C 813.199 600.968, 811.658 600.665, 782.500 600.331 C 764.861 600.128, 755.795 600.390, 754.308 601.143 M 857.020 601.245 C 851.973 603.879, 851.983 603.750, 852.251 659.728 L 852.500 711.956 855.275 714.728 L 858.049 717.500 888.275 717.500 L 918.500 717.500 924.239 714.682 C 936.432 708.695, 943 698.418, 943 685.329 C 943 676.499, 941.427 671.766, 936.709 666.407 C 932.309 661.408, 928.356 659, 924.550 659 C 920.816 659, 921.432 657.635, 926.094 655.579 C 934.151 652.024, 939.312 639.156, 937.099 628.139 C 935.460 619.978, 932.492 614.648, 926.599 609.284 C 917.628 601.117, 915.470 600.644, 885.500 600.273 C 865.648 600.026, 858.913 600.256, 857.020 601.245 M 950.500 600.945 C 943.333 603.879, 941.646 616.987, 947.712 622.609 C 950.207 624.921, 950.813 625, 966.146 625 L 982 625 982.006 665.750 C 982.009 690.594, 982.413 707.946, 983.040 710.205 C 984.562 715.683, 988.090 718, 994.912 718 C 1000.509 718, 1003.953 716.555, 1006.718 713.046 C 1007.632 711.886, 1007.944 700.694, 1007.968 668.250 L 1008 625 1024.077 625 L 1040.154 625 1043.077 622.077 C 1045.673 619.481, 1046 618.467, 1046 613.011 C 1046 599.728, 1047.016 599.985, 994.782 600.063 C 971.527 600.098, 951.600 600.495, 950.500 600.945 M 1060.476 601.377 C 1058.812 602.112, 1056.900 603.924, 1056.226 605.404 C 1055.309 607.415, 1055 620.962, 1055 659.097 C 1055 715.316, 1054.939 714.737, 1061.119 716.892 C 1063.214 717.622, 1076.369 718, 1099.699 718 C 1138.823 718, 1139.808 717.857, 1141.892 711.881 C 1142.501 710.132, 1143 706.526, 1143 703.867 C 1143 699.933, 1142.455 698.423, 1140.075 695.766 L 1137.149 692.500 1109.575 692.637 L 1082 692.774 1082 681.887 L 1082 671 1100.100 671 L 1118.200 671 1121.600 667.600 C 1124.374 664.826, 1125 663.436, 1125 660.050 C 1125 657.768, 1124.295 654.538, 1123.434 652.872 C 1120.839 647.855, 1117.140 647, 1098.032 647 L 1081 647 1081 636 L 1081 625 1107.453 625 C 1125.105 625, 1134.737 624.621, 1136.405 623.861 C 1142.524 621.073, 1143.876 608.422, 1138.617 603.161 L 1135.957 600.500 1099.728 600.270 C 1071.271 600.090, 1062.851 600.327, 1060.476 601.377 M 1160.270 600.660 C 1159.043 600.921, 1157.131 602.289, 1156.020 603.702 C 1154.053 606.202, 1154 607.617, 1154 657.167 C 1154 711.820, 1154.089 712.848, 1159.117 716.369 C 1160.675 717.461, 1163.542 718, 1167.788 718 C 1179.544 718, 1181 715.636, 1181 696.550 L 1181 683 1188.449 683 L 1195.897 683 1205.575 697.434 C 1218.899 717.306, 1219.032 717.418, 1229.815 717.840 C 1237.503 718.141, 1238.817 717.932, 1241.250 716.018 C 1243.432 714.302, 1244 713.028, 1244 709.852 C 1244 706.382, 1242.967 704.520, 1236.250 695.884 C 1231.987 690.404, 1227.278 684.072, 1225.785 681.814 L 1223.069 677.708 1227.323 675.010 C 1233.173 671.300, 1238.560 664.728, 1241.199 658.079 C 1243 653.542, 1243.422 650.442, 1243.457 641.479 C 1243.498 631.015, 1243.335 630.122, 1240.238 623.833 C 1236.010 615.244, 1226.713 606.367, 1218.439 603.019 C 1212.780 600.729, 1211.322 600.606, 1187.500 600.401 C 1173.750 600.283, 1161.496 600.399, 1160.270 600.660 M 1249.223 607.557 C 1246.774 609.272, 1246.211 613.811, 1248.200 615.800 C 1250.995 618.595, 1257 615.777, 1257 611.671 C 1257 609.978, 1253.649 606, 1252.223 606 C 1251.795 606, 1250.445 606.701, 1249.223 607.557 M 1248.384 609.442 C 1246.884 613.351, 1250.544 617.407, 1253.750 615.388 C 1257.526 613.010, 1255.896 608, 1251.346 608 C 1250.021 608, 1248.688 608.649, 1248.384 609.442 M 669.081 624.546 C 662.215 626.446, 658.283 628.885, 653.206 634.392 C 648.325 639.688, 646.662 642.826, 645.007 649.866 C 641.212 666.004, 648.443 681.156, 663.489 688.592 C 670.607 692.110, 671.233 692.238, 679.201 691.799 C 689.421 691.236, 696.309 688.087, 703.201 680.828 C 709.795 673.884, 712.276 666.885, 711.826 656.500 C 711.398 646.619, 708.727 640.635, 701.518 633.404 C 693.226 625.086, 680.093 621.499, 669.081 624.546 M 777.226 642.250 L 777.500 659.500 786.901 659.790 C 799.973 660.192, 806.118 658.768, 809.900 654.461 C 817.243 646.098, 814.101 632.132, 803.750 627.121 C 800.084 625.346, 797.538 625, 788.161 625 L 776.953 625 777.226 642.250 M 879 638 L 879 651 890.750 650.994 C 905.265 650.988, 909.453 649.944, 912.048 645.689 C 915.883 639.399, 913.544 631.132, 906.759 626.995 C 903.976 625.298, 901.709 625.007, 891.250 625.004 L 879 625 879 638 M 1181 642.500 L 1181 660 1191.757 660 C 1204.574 660, 1208.287 659.084, 1212.666 654.839 C 1216.794 650.838, 1218.397 646.133, 1217.552 640.498 C 1216.677 634.663, 1213.428 630.139, 1208.093 627.324 C 1204.231 625.287, 1202.283 625, 1192.343 625 L 1181 625 1181 642.500 M 879 681.555 L 879 693.138 894.922 692.819 C 910.090 692.515, 910.964 692.387, 913.370 690.124 C 918.387 685.406, 917.564 676.965, 911.678 672.767 C 908.770 670.693, 907.245 670.478, 893.750 670.236 L 879 669.973 879 681.555 M 772.655 738.829 C 771.261 740.369, 771 743.169, 771 756.606 C 771 777.895, 770.326 777, 786.357 777 C 799.210 777, 801 776.450, 801 772.500 C 801 768.777, 799.066 768, 789.800 768 L 781 768 781 753.535 C 781 740.258, 780.841 738.985, 779.066 738.035 C 776.270 736.539, 774.533 736.754, 772.655 738.829 M 825.035 738.934 C 824.441 740.044, 824 747.927, 824 757.434 C 824 772.667, 824.161 774.161, 826 776 C 827.100 777.100, 828.450 778, 829 778 C 829.550 778, 830.900 777.100, 832 776 C 833.839 774.161, 834 772.667, 834 757.434 C 834 747.927, 833.559 740.044, 832.965 738.934 C 832.303 737.698, 830.873 737, 829 737 C 827.127 737, 825.697 737.698, 825.035 738.934 M 856.899 739.101 C 854.905 741.095, 854.816 742.029, 855.149 757.448 C 855.406 769.322, 855.869 774.138, 856.872 775.347 C 859.020 777.933, 877.318 777.713, 881.689 775.048 C 887.051 771.779, 887.953 764.740, 883.778 758.748 C 882.036 756.248, 882.005 755.853, 883.431 754.427 C 884.416 753.441, 885 751.089, 885 748.103 C 885 740.082, 879.986 737, 866.935 737 C 860.206 737, 858.681 737.319, 856.899 739.101 M 908 739 C 906.162 740.838, 906 742.333, 906 757.500 C 906 772.667, 906.162 774.162, 908 776 C 912.073 780.073, 916 777.019, 916 769.778 C 916 766.539, 916.459 765.038, 917.582 764.607 C 920.234 763.589, 920.633 763.860, 922.467 767.927 C 926.025 775.817, 932.537 779.307, 935.344 774.828 C 936.516 772.958, 935.503 770.333, 931.870 765.818 L 929.711 763.135 932.855 759.991 C 939.043 753.803, 936.831 742.642, 928.684 738.943 C 922.660 736.208, 910.759 736.241, 908 739 M 966.761 738.250 C 965.181 739.468, 959.186 753.605, 954.443 767.294 C 952.107 774.037, 952.104 774.104, 954.044 776.044 C 955.120 777.120, 956.350 778, 956.777 778 C 958.746 778, 961.791 774.797, 962.315 772.175 C 962.801 769.747, 963.509 769.177, 966.697 768.650 C 974.563 767.351, 976.952 767.786, 978.215 770.750 C 980.087 775.143, 982.112 777, 985.033 777 C 989.262 777, 990.637 774.665, 989.046 770.184 C 986.036 761.706, 975.672 739.405, 974.205 738.250 C 973.332 737.563, 971.665 737, 970.500 737 C 969.335 737, 967.653 737.563, 966.761 738.250 M 1004.856 739.144 C 1002.777 741.223, 1002.732 741.797, 1003.382 757.894 C 1003.987 772.870, 1004.251 774.667, 1006.075 776.200 C 1008.100 777.902, 1010.830 777.624, 1012.235 775.573 C 1012.639 774.983, 1012.976 772.415, 1012.985 769.867 C 1012.998 765.910, 1013.329 765.147, 1015.250 764.642 C 1016.487 764.317, 1017.616 764.388, 1017.758 764.799 C 1017.900 765.210, 1019.475 767.774, 1021.258 770.496 C 1025.209 776.528, 1028.565 778.529, 1031.491 776.598 C 1034.625 774.528, 1034.382 771.765, 1030.654 767.053 L 1027.220 762.713 1030.722 759.212 C 1034.031 755.902, 1034.199 755.412, 1033.774 750.286 C 1032.974 740.644, 1027.424 737.314, 1011.750 737.073 C 1008.162 737.018, 1006.475 737.525, 1004.856 739.144 M 1049.447 739.059 C 1048.163 740.478, 1047.882 741.528, 1048.542 742.441 C 1049.069 743.170, 1052.324 747.737, 1055.776 752.591 L 1062.052 761.417 1061.413 767.064 C 1060.624 774.038, 1061.942 777, 1065.835 777 C 1070.149 777, 1071 775.348, 1071 766.977 L 1071 759.354 1076.796 751.427 C 1079.984 747.067, 1082.953 742.909, 1083.394 742.187 C 1084.401 740.538, 1081.355 737, 1078.929 737 C 1077.139 737, 1072.853 741.860, 1069.448 747.750 C 1068.414 749.538, 1067.103 750.998, 1066.534 750.995 C 1065.965 750.992, 1063.339 747.842, 1060.697 743.995 C 1055.460 736.369, 1052.899 735.245, 1049.447 739.059 M 865 750.052 L 865 753.105 870.250 752.802 C 875.147 752.520, 875.521 752.315, 875.816 749.750 C 876.128 747.041, 876.049 747, 870.566 747 C 865.027 747, 865 747.015, 865 750.052 M 916 751.500 L 916 756 920.429 756 C 923.121 756, 925.473 755.384, 926.429 754.429 C 928.285 752.572, 928.256 752.805, 927.025 749.565 C 926.156 747.281, 925.498 747, 921.025 747 L 916 747 916 751.500 M 1013 751.552 L 1013 756.105 1018.231 755.802 C 1022.964 755.529, 1023.556 755.229, 1024.458 752.653 C 1025.759 748.934, 1023.313 747, 1017.309 747 L 1013 747 1013 751.552 M 969.099 753.642 C 968.339 755.764, 967.508 758.063, 967.252 758.750 C 966.933 759.605, 967.926 760, 970.393 760 C 974.509 760, 974.728 759.237, 972.214 753.642 L 970.480 749.783 969.099 753.642 M 867.750 761.716 C 865.458 762.064, 865 762.629, 865 765.116 L 865 768.100 870.750 767.800 C 875.948 767.529, 876.532 767.271, 876.837 765.113 C 877.363 761.397, 875.198 760.588, 867.750 761.716" stroke="none" fill="#060e17" fill-rule="evenodd"/></svg>